<?xml version="1.0" encoding="UTF-8" standalone="no"?>
<!-- Created with Inkscape (http://www.inkscape.org/) -->

<svg
   width="179"
   height="179"
   viewBox="0 0 47.360417 47.360417"
   version="1.1"
   id="svg5"
   xml:space="preserve"
   inkscape:version="1.2.1 (9c6d41e410, 2022-07-14)"
   sodipodi:docname="status-prototype.svg"
   inkscape:export-filename="status-prototype.webp"
   inkscape:export-xdpi="96"
   inkscape:export-ydpi="96"
   xmlns:inkscape="http://www.inkscape.org/namespaces/inkscape"
   xmlns:sodipodi="http://sodipodi.sourceforge.net/DTD/sodipodi-0.dtd"
   xmlns="http://www.w3.org/2000/svg"
   xmlns:svg="http://www.w3.org/2000/svg"><sodipodi:namedview
     id="namedview7"
     pagecolor="#505050"
     bordercolor="#ffffff"
     borderopacity="1"
     inkscape:showpageshadow="0"
     inkscape:pageopacity="0"
     inkscape:pagecheckerboard="1"
     inkscape:deskcolor="#505050"
     inkscape:document-units="px"
     showgrid="false"
     showguides="false"
     inkscape:zoom="2.8798615"
     inkscape:cx="77.43428"
     inkscape:cy="59.725095"
     inkscape:window-width="1920"
     inkscape:window-height="1027"
     inkscape:window-x="-8"
     inkscape:window-y="22"
     inkscape:window-maximized="1"
     inkscape:current-layer="layer1" /><defs
     id="defs2"><rect
       x="79.845347"
       y="97.385144"
       width="46.598268"
       height="51.834028"
       id="rect3109" /></defs><g
     inkscape:label="Layer 1"
     inkscape:groupmode="layer"
     id="layer1"><g
       id="g8295"
       transform="translate(1.3229167,24.341667)"><path
         id="rect234"
         style="fill:#454139;stroke-width:0.529167;stroke-linecap:round;stroke-linejoin:round;paint-order:stroke fill markers;stop-color:#000000"
         d="M 0.52916664,0 H 18.520833 c 0.293158,0 0.529166,0.23600832 0.529166,0.52916664 V 5.8208333 c 0,0.2931583 -0.236008,0.5291666 -0.529166,0.5291666 H 0.52916664 C 0.23600832,6.3499999 0,6.1139916 0,5.8208333 V 0.52916664 C 0,0.23600832 0.23600832,0 0.52916664,0 Z" /><path
         id="rect4181"
         style="fill:#efede7;stroke-width:0.435093;stroke-linecap:round;stroke-linejoin:round;paint-order:stroke fill markers;stop-color:#000000"
         d="m 1.9650795,2.874191 h 2.4198409 c 0.1666481,0 0.3008089,0.1341608 0.3008089,0.300809 0,0.1666481 -0.1341608,0.3008089 -0.3008089,0.3008089 H 1.9650795 c -0.1666481,0 -0.3008089,-0.1341608 -0.3008089,-0.3008089 0,-0.1666482 0.1341608,-0.300809 0.3008089,-0.300809 z" /><path
         d="m 17.935525,0.79393105 c -0.05716,0 -0.116551,0.0125 -0.173384,0.03932 C 17.35184,1.027286 17.047672,1.093142 16.793827,1.093142 c -0.538478,0 -0.851389,-0.29635395 -1.471538,-0.29644695 -0.312167,-10e-7 -0.70005,0.07445 -1.233041,0.29821095 v -0.0035 c 0,-0.16510595 -0.13255,-0.29765595 -0.297656,-0.29765595 -0.165106,0 -0.297656,0.13255 -0.297656,0.29765595 l -3.72e-4,4.316016 c 0,0.08139 0.06744,0.148828 0.148828,0.148828 h 0.298028 c 0.08139,0 0.148829,-0.06697 0.148829,-0.148828 V 4.365625 c 0.481273,-0.22194 0.862366,-0.295982 1.193415,-0.295982 0.661262,0 1.121792,0.29561 1.783147,0.29561 0.286587,0 0.610846,-0.05552 1.00552,-0.214778 0.113481,-0.04623 0.185105,-0.1532 0.185105,-0.267611 V 1.079686 c 0,-0.17422195 -0.150689,-0.28571795 -0.320911,-0.28571795 z M 17.661123,2.112702 c -0.297563,0.130597 -0.537734,0.191523 -0.74414,0.209197 v 0.746094 c 0.236636,-0.01374 0.479877,-0.06468 0.74414,-0.161293 v 0.760326 c -0.212359,0.06921 -0.408626,0.103063 -0.595591,0.103063 -0.05067,0 -0.09962,-0.004 -0.148549,-0.0083 V 3.067977 c -0.04126,0.0024 -0.08272,0.0061 -0.123621,0.0061 -0.240171,0 -0.440438,-0.0423 -0.62052,-0.09376 v 0.62238 C 15.951367,3.546377 15.706173,3.496564 15.428702,3.48196 V 2.775936 c -0.03535,0.0056 -0.06976,0.0019 -0.106971,0.0019 -0.183244,0 -0.403696,0.04093 -0.63717,0.109761 v 0.642751 c -0.193477,0.04837 -0.391604,0.1079 -0.595313,0.187896 V 3.125722 l 0.230405,-0.09665 c 0.130504,-0.05404 0.249566,-0.09683 0.364908,-0.141479 V 2.127639 C 14.506897,2.175079 14.313421,2.2374 14.089248,2.331348 V 1.740686 l 0.230405,-0.09664 c 0.130504,-0.05479 0.249566,-0.09711 0.364908,-0.133853 v 0.61773 c 0.245473,-0.06468 0.456623,-0.0946 0.636984,-0.09451 0.03788,0 0.0714,0.0041 0.107157,0.0062 V 1.398647 c 0.173012,0.0146 0.31998,0.06065 0.494853,0.119063 0.07906,0.02605 0.162781,0.05228 0.249287,0.07711 v 0.614568 c 0.193384,0.06362 0.385558,0.12055 0.62052,0.12055 0.03913,0 0.08168,-0.0044 0.123621,-0.008 V 1.682437 c 0.236636,-0.01374 0.479877,-0.06468 0.74414,-0.161293 z m -2.232421,-0.07348 v 0.744513 c 0.173105,0.0146 0.319701,0.06067 0.495132,0.119063 0.07879,0.0266 0.162502,0.05265 0.249008,0.07776 V 2.209442 C 15.95053,2.135962 15.722637,2.056894 15.428702,2.03922 Z"
         id="path6776"
         style="fill:#efede7;fill-opacity:1;stroke-width:0.00930175" /><g
         id="g7530"
         transform="translate(0.18396053,-6.7145491)"><path
           id="rect6766"
           style="fill:#756cb2;stroke-width:0.529167;stroke-linecap:round;stroke-linejoin:round;paint-order:stroke fill markers;stop-color:#000000"
           d="m 6.6952061,6.7145491 h 5.2916669 c 0.293158,0 0.529166,0.2360083 0.529166,0.5291666 v 5.2916663 c 0,0.293159 -0.236008,0.529167 -0.529166,0.529167 H 6.6952061 c -0.2931583,0 -0.5291666,-0.236008 -0.5291666,-0.529167 V 7.2437157 c 0,-0.2931583 0.2360083,-0.5291666 0.5291666,-0.5291666 z" /><path
           id="path6768"
           style="fill:#efede7;fill-opacity:1;stroke-width:0.349868;stroke-linecap:round;stroke-linejoin:round;paint-order:stroke fill markers;stop-color:#000000"
           d="m 8.6534013,8.2124736 c 0,0 -1.4678041,-0.00602 -1.4678041,1.5962711 0,0.1938263 0.1560412,0.3498673 0.3498676,0.3498673 h 2.1596805 c 0.1938274,0 0.3498687,-0.156041 0.3498687,-0.3498673 0,-1.5840909 -1.3916127,-1.5962711 -1.3916127,-1.5962711 z m 2.1265397,0.4622763 c -0.288657,0.00363 -0.519677,0.2372995 -0.519677,0.5268514 v 0.2043173 0.053642 l 0.0021,0.00205 c 0.0048,0.06334 0.01751,0.1243626 0.03724,0.1821089 -0.02175,0.4877295 -0.1841,0.6539675 -0.4838017,0.7086185 h -3.42e-4 c -0.004,-1.97e-4 -0.0082,-3.42e-4 -0.0123,-3.42e-4 H 7.2016555 c -0.1340049,0 -0.2419006,0.107896 -0.2419006,0.241901 v 0.01059 c 0,0.134005 0.1078957,0.241901 0.2419006,0.241901 h 0.233359 c -0.00839,0.02721 -0.012983,0.05606 -0.012983,0.0861 v 0.344059 c 0,0.160806 0.1296115,0.290076 0.2904175,0.290076 h 0.376176 c 0.1608059,0 0.2900759,-0.12927 0.2900759,-0.290076 v -0.34406 c 0,-0.03003 -0.00459,-0.05889 -0.012983,-0.0861 h 0.5008848 c -0.00839,0.02721 -0.012983,0.05606 -0.012983,0.0861 v 0.34406 c 0,0.160806 0.1296115,0.290076 0.2904175,0.290076 h 0.3761751 c 0.160803,0 0.290417,-0.12927 0.290417,-0.290076 v -0.34406 c 0,-0.02249 -0.0027,-0.04426 -0.0075,-0.06526 0.5564817,-0.130035 0.8310867,-0.407023 0.9231867,-0.779343 0.06573,0.02545 0.135949,0.04169 0.209441,0.04715 l 0.0021,0.0021 h 0.0533 0.204316 c 0.291834,0 0.526852,-0.2350199 0.526852,-0.5268517 V 9.4489687 l -0.0014,-0.00137 c 7.93e-4,-0.013788 0.0014,-0.027661 0.0014,-0.041683 0,-0.4049919 -0.326178,-0.7311687 -0.731168,-0.7311687 -0.01404,0 -0.02785,5.931e-4 -0.04169,0.00137 l -0.0014,-0.00137 H 10.7868 c -0.0022,0 -0.0046,-2.86e-5 -0.0068,0 z m 0.08747,0.7311687 A 0.12363122,0.12363122 0 0 1 10.991095,9.5296023 0.12363122,0.12363122 0 0 1 10.867411,9.653286 0.12363122,0.12363122 0 0 1 10.744069,9.5296023 0.12363122,0.12363122 0 0 1 10.867411,9.4059186 Z" /></g></g><g
       inkscape:label="Layer 1"
       id="layer1-3"
       transform="translate(1.3229167,32.014584)"><path
         id="rect234-6"
         style="fill:#454139;stroke-width:0.529167;stroke-linecap:round;stroke-linejoin:round;paint-order:stroke fill markers;stop-color:#000000"
         d="M 0.52916664,0 H 18.520833 c 0.293158,0 0.529166,0.23600832 0.529166,0.52916664 V 5.8208333 c 0,0.2931583 -0.236008,0.5291666 -0.529166,0.5291666 H 0.52916664 C 0.23600832,6.3499999 0,6.1139916 0,5.8208333 V 0.52916664 C 0,0.23600832 0.23600832,0 0.52916664,0 Z" /><path
         id="rect4127"
         style="fill:none;stroke:#756cb2;stroke-width:0.488462;stroke-linecap:round;stroke-linejoin:round;paint-order:stroke fill markers;stop-color:#000000"
         d="m 13.432693,0.244231 h 4.884615 c 0.270608,0 0.488461,0.21785384 0.488461,0.48846152 V 5.6173079 c 0,0.2706077 -0.217853,0.4884615 -0.488461,0.4884615 h -4.884615 c -0.270608,0 -0.488462,-0.2178538 -0.488462,-0.4884615 V 0.73269252 c 0,-0.27060768 0.217854,-0.48846152 0.488462,-0.48846152 z" /><path
         d="m 17.935525,0.793931 c -0.05716,0 -0.116551,0.0125 -0.173384,0.03932 -0.410301,0.1940349 -0.714469,0.2598909 -0.968314,0.2598909 -0.538478,0 -0.851389,-0.296354 -1.471538,-0.296447 -0.312167,-1e-6 -0.70005,0.07445 -1.233041,0.298211 v -0.0035 c 0,-0.165106 -0.13255,-0.297656 -0.297656,-0.297656 -0.165106,0 -0.297656,0.13255 -0.297656,0.297656 l -3.72e-4,4.316016 c 0,0.08139 0.06744,0.148828 0.148828,0.148828 h 0.298028 c 0.08139,0 0.148829,-0.06697 0.148829,-0.148828 v -1.041797 c 0.481273,-0.22194 0.862366,-0.295982 1.193415,-0.295982 0.661262,0 1.121792,0.29561 1.783147,0.29561 0.286587,0 0.610846,-0.05552 1.00552,-0.214778 0.113481,-0.04623 0.185105,-0.1532 0.185105,-0.267611 v -2.803178 c 0,-0.174222 -0.150689,-0.285718 -0.320911,-0.285718 z m -0.274402,1.3187709 c -0.297563,0.130597 -0.537734,0.191523 -0.74414,0.209197 v 0.746094 c 0.236636,-0.01374 0.479877,-0.06468 0.74414,-0.161293 v 0.760326 c -0.212359,0.06921 -0.408626,0.103063 -0.595591,0.103063 -0.05067,0 -0.09962,-0.004 -0.148549,-0.0083 v -0.693812 c -0.04126,0.0024 -0.08272,0.0061 -0.123621,0.0061 -0.240171,0 -0.440438,-0.0423 -0.62052,-0.09376 v 0.62238 c -0.221475,-0.05632 -0.466669,-0.106133 -0.74414,-0.120737 v -0.706024 c -0.03535,0.0056 -0.06976,0.0019 -0.106971,0.0019 -0.183244,0 -0.403696,0.04093 -0.63717,0.109761 v 0.642751 c -0.193477,0.04837 -0.391604,0.1079 -0.595313,0.187896 v -0.592522 l 0.230405,-0.09665 c 0.130504,-0.05404 0.249566,-0.09683 0.364908,-0.141479 v -0.759954 c -0.177664,0.04744 -0.37114,0.109761 -0.595313,0.203709 v -0.590662 l 0.230405,-0.09664 c 0.130504,-0.05479 0.249566,-0.09711 0.364908,-0.133853 v 0.61773 c 0.245473,-0.06468 0.456623,-0.0946 0.636984,-0.09451 0.03788,0 0.0714,0.0041 0.107157,0.0062 v -0.640966 c 0.173012,0.0146 0.31998,0.06065 0.494853,0.119063 0.07906,0.02605 0.162781,0.05228 0.249287,0.07711 v 0.614568 c 0.193384,0.06362 0.385558,0.12055 0.62052,0.12055 0.03913,0 0.08168,-0.0044 0.123621,-0.008 v -0.639501 c 0.236636,-0.01374 0.479877,-0.06468 0.74414,-0.161293 z m -2.232421,-0.07348 v 0.744513 c 0.173105,0.0146 0.319701,0.06067 0.495132,0.119063 0.07879,0.0266 0.162502,0.05265 0.249008,0.07776 v -0.771116 c -0.222312,-0.07348 -0.450205,-0.152548 -0.74414,-0.170222 z"
         id="path2876"
         style="fill:#efede7;fill-opacity:1;stroke-width:0.00930175" /><path
         id="rect3986"
         style="fill:#efede7;fill-opacity:1;stroke-width:0.349868;stroke-linecap:round;stroke-linejoin:round;paint-order:stroke fill markers;stop-color:#000000"
         d="m 8.8373615,1.4979245 c 0,0 -1.467804,-0.00602 -1.467804,1.5962711 0,0.1938263 0.1560412,0.3498677 0.3498676,0.3498677 h 2.1596804 c 0.1938275,0 0.3498685,-0.1560414 0.3498685,-0.3498677 0,-1.5840909 -1.3916125,-1.5962711 -1.3916125,-1.5962711 z m 2.1265395,0.4622763 c -0.288657,0.00363 -0.519677,0.2372995 -0.519677,0.5268514 v 0.2043173 0.053642 l 0.0021,0.00205 c 0.0048,0.06334 0.01751,0.1243626 0.03724,0.1821089 -0.02175,0.4877291 -0.1841,0.6539673 -0.4838015,0.7086186 h -3.42e-4 c -0.004,-1.972e-4 -0.0082,-3.417e-4 -0.0123,-3.417e-4 H 7.3856158 c -0.1340049,0 -0.2419006,0.1078958 -0.2419006,0.2419007 V 3.88994 c 0,0.1340049 0.1078957,0.2419007 0.2419006,0.2419007 h 0.233359 c -0.00839,0.027209 -0.012983,0.056064 -0.012983,0.0861 V 4.562 c 0,0.1608057 0.1296115,0.2900758 0.2904175,0.2900758 h 0.376176 c 0.1608058,0 0.2900758,-0.1292701 0.2900758,-0.2900758 V 4.2179404 c 0,-0.030036 -0.00459,-0.058891 -0.012983,-0.0861 h 0.5008848 c -0.00839,0.027209 -0.012983,0.056064 -0.012983,0.0861 v 0.3440593 c 0,0.1608057 0.1296115,0.2900758 0.2904175,0.2900758 h 0.3761751 c 0.160803,0 0.290417,-0.1292701 0.290417,-0.2900758 V 4.2179404 c 0,-0.022495 -0.0027,-0.044259 -0.0075,-0.065258 0.5564815,-0.1300351 0.8310865,-0.4070232 0.9231865,-0.7793438 0.06573,0.02545 0.135949,0.041691 0.209441,0.04715 l 0.0021,0.00205 h 0.0533 0.204316 c 0.291834,0 0.526852,-0.2350196 0.526852,-0.5268514 V 2.7344196 l -0.0014,-0.00137 c 7.93e-4,-0.013788 0.0014,-0.027661 0.0014,-0.041683 0,-0.4049919 -0.326178,-0.7311687 -0.731168,-0.7311687 -0.01404,0 -0.02785,5.931e-4 -0.04169,0.00137 l -0.0014,-0.00137 H 10.97076 c -0.0022,0 -0.0046,-2.86e-5 -0.0068,0 z m 0.08747,0.7311687 a 0.12363122,0.12363122 0 0 1 0.123684,0.1236837 0.12363122,0.12363122 0 0 1 -0.123684,0.1236837 0.12363122,0.12363122 0 0 1 -0.123342,-0.1236837 0.12363122,0.12363122 0 0 1 0.123342,-0.1236837 z" /><path
         id="rect4181-9"
         style="fill:#efede7;stroke-width:0.435093;stroke-linecap:round;stroke-linejoin:round;paint-order:stroke fill markers;stop-color:#000000"
         d="m 1.9650795,2.874191 h 2.4198409 c 0.1666481,0 0.3008089,0.1341608 0.3008089,0.300809 0,0.1666481 -0.1341608,0.3008089 -0.3008089,0.3008089 H 1.9650795 c -0.1666481,0 -0.3008089,-0.1341608 -0.3008089,-0.3008089 0,-0.1666482 0.1341608,-0.300809 0.3008089,-0.300809 z" /></g><g
       inkscape:label="Layer 1"
       id="layer1-0"
       transform="translate(1.3229167,1.3229167)"><path
         id="rect234-8"
         style="fill:#454139;stroke-width:0.529167;stroke-linecap:round;stroke-linejoin:round;paint-order:stroke fill markers;stop-color:#000000"
         d="M 0.52916664,0 H 18.520833 c 0.293158,0 0.529166,0.23600832 0.529166,0.52916664 V 5.8208333 c 0,0.2931583 -0.236008,0.5291666 -0.529166,0.5291666 H 0.52916664 C 0.23600832,6.3499999 0,6.1139916 0,5.8208333 V 0.52916664 C 0,0.23600832 0.23600832,0 0.52916664,0 Z" /><path
         d="m 17.935525,0.793931 c -0.05716,0 -0.116551,0.0125 -0.173384,0.03932 -0.410301,0.1940349 -0.714469,0.2598909 -0.968314,0.2598909 -0.538478,0 -0.851389,-0.296354 -1.471538,-0.296447 -0.312167,-1e-6 -0.70005,0.07445 -1.233041,0.298211 v -0.0035 c 0,-0.165106 -0.13255,-0.297656 -0.297656,-0.297656 -0.165106,0 -0.297656,0.13255 -0.297656,0.297656 l -3.72e-4,4.316016 c 0,0.08139 0.06744,0.148828 0.148828,0.148828 h 0.298028 c 0.08139,0 0.148829,-0.06697 0.148829,-0.148828 v -1.041797 c 0.481273,-0.22194 0.862366,-0.295982 1.193415,-0.295982 0.661262,0 1.121792,0.29561 1.783147,0.29561 0.286587,0 0.610846,-0.05552 1.00552,-0.214778 0.113481,-0.04623 0.185105,-0.1532 0.185105,-0.267611 v -2.803178 c 0,-0.174222 -0.150689,-0.285718 -0.320911,-0.285718 z m -0.274402,1.3187709 c -0.297563,0.130597 -0.537734,0.191523 -0.74414,0.209197 v 0.746094 c 0.236636,-0.01374 0.479877,-0.06468 0.74414,-0.161293 v 0.760326 c -0.212359,0.06921 -0.408626,0.103063 -0.595591,0.103063 -0.05067,0 -0.09962,-0.004 -0.148549,-0.0083 v -0.693812 c -0.04126,0.0024 -0.08272,0.0061 -0.123621,0.0061 -0.240171,0 -0.440438,-0.0423 -0.62052,-0.09376 v 0.62238 c -0.221475,-0.05632 -0.466669,-0.106133 -0.74414,-0.120737 v -0.706024 c -0.03535,0.0056 -0.06976,0.0019 -0.106971,0.0019 -0.183244,0 -0.403696,0.04093 -0.63717,0.109761 v 0.642751 c -0.193477,0.04837 -0.391604,0.1079 -0.595313,0.187896 v -0.592522 l 0.230405,-0.09665 c 0.130504,-0.05404 0.249566,-0.09683 0.364908,-0.141479 v -0.759954 c -0.177664,0.04744 -0.37114,0.109761 -0.595313,0.203709 v -0.590662 l 0.230405,-0.09664 c 0.130504,-0.05479 0.249566,-0.09711 0.364908,-0.133853 v 0.61773 c 0.245473,-0.06468 0.456623,-0.0946 0.636984,-0.09451 0.03788,0 0.0714,0.0041 0.107157,0.0062 v -0.640966 c 0.173012,0.0146 0.31998,0.06065 0.494853,0.119063 0.07906,0.02605 0.162781,0.05228 0.249287,0.07711 v 0.614568 c 0.193384,0.06362 0.385558,0.12055 0.62052,0.12055 0.03913,0 0.08168,-0.0044 0.123621,-0.008 v -0.639501 c 0.236636,-0.01374 0.479877,-0.06468 0.74414,-0.161293 z m -2.232421,-0.07348 v 0.744513 c 0.173105,0.0146 0.319701,0.06067 0.495132,0.119063 0.07879,0.0266 0.162502,0.05265 0.249008,0.07776 v -0.771116 c -0.222312,-0.07348 -0.450205,-0.152548 -0.74414,-0.170222 z"
         id="path2876-1"
         style="fill:#efede7;fill-opacity:1;stroke-width:0.00930175" /><path
         id="rect3986-0"
         style="fill:#efede7;fill-opacity:1;stroke-width:0.349868;stroke-linecap:round;stroke-linejoin:round;paint-order:stroke fill markers;stop-color:#000000"
         d="m 8.8373615,1.4979245 c 0,0 -1.467804,-0.00602 -1.467804,1.5962711 0,0.1938263 0.1560412,0.3498677 0.3498676,0.3498677 h 2.1596804 c 0.1938275,0 0.3498685,-0.1560414 0.3498685,-0.3498677 0,-1.5840909 -1.3916125,-1.5962711 -1.3916125,-1.5962711 z m 2.1265395,0.4622763 c -0.288657,0.00363 -0.519677,0.2372995 -0.519677,0.5268514 v 0.2043173 0.053642 l 0.0021,0.00205 c 0.0048,0.06334 0.01751,0.1243626 0.03724,0.1821089 -0.02175,0.4877291 -0.1841,0.6539673 -0.4838015,0.7086186 h -3.42e-4 c -0.004,-1.972e-4 -0.0082,-3.417e-4 -0.0123,-3.417e-4 H 7.3856158 c -0.1340049,0 -0.2419006,0.1078958 -0.2419006,0.2419007 V 3.88994 c 0,0.1340049 0.1078957,0.2419007 0.2419006,0.2419007 h 0.233359 c -0.00839,0.027209 -0.012983,0.056064 -0.012983,0.0861 V 4.562 c 0,0.1608057 0.1296115,0.2900758 0.2904175,0.2900758 h 0.376176 c 0.1608058,0 0.2900758,-0.1292701 0.2900758,-0.2900758 V 4.2179404 c 0,-0.030036 -0.00459,-0.058891 -0.012983,-0.0861 h 0.5008848 c -0.00839,0.027209 -0.012983,0.056064 -0.012983,0.0861 v 0.3440593 c 0,0.1608057 0.1296115,0.2900758 0.2904175,0.2900758 h 0.3761751 c 0.160803,0 0.290417,-0.1292701 0.290417,-0.2900758 V 4.2179404 c 0,-0.022495 -0.0027,-0.044259 -0.0075,-0.065258 0.5564815,-0.1300351 0.8310865,-0.4070232 0.9231865,-0.7793438 0.06573,0.02545 0.135949,0.041691 0.209441,0.04715 l 0.0021,0.00205 h 0.0533 0.204316 c 0.291834,0 0.526852,-0.2350196 0.526852,-0.5268514 V 2.7344196 l -0.0014,-0.00137 c 7.93e-4,-0.013788 0.0014,-0.027661 0.0014,-0.041683 0,-0.4049919 -0.326178,-0.7311687 -0.731168,-0.7311687 -0.01404,0 -0.02785,5.931e-4 -0.04169,0.00137 l -0.0014,-0.00137 H 10.97076 c -0.0022,0 -0.0046,-2.86e-5 -0.0068,0 z m 0.08747,0.7311687 a 0.12363122,0.12363122 0 0 1 0.123684,0.1236837 0.12363122,0.12363122 0 0 1 -0.123684,0.1236837 0.12363122,0.12363122 0 0 1 -0.123342,-0.1236837 0.12363122,0.12363122 0 0 1 0.123342,-0.1236837 z" /><path
         id="rect4181-8"
         style="fill:#efede7;stroke-width:0.435093;stroke-linecap:round;stroke-linejoin:round;paint-order:stroke fill markers;stop-color:#000000"
         d="m 1.9650795,2.874191 h 2.4198409 c 0.1666481,0 0.3008089,0.1341608 0.3008089,0.300809 0,0.1666481 -0.1341608,0.3008089 -0.3008089,0.3008089 H 1.9650795 c -0.1666481,0 -0.3008089,-0.1341608 -0.3008089,-0.3008089 0,-0.1666482 0.1341608,-0.300809 0.3008089,-0.300809 z" /><path
         id="rect11347"
         style="fill:none;stroke:#756cb2;stroke-width:0.488462;stroke-linecap:round;stroke-linejoin:round;paint-order:stroke fill markers;stop-color:#000000"
         d="M 0.73269252,0.244231 H 5.6173079 c 0.2706077,0 0.4884615,0.21785384 0.4884615,0.48846152 V 5.6173079 c 0,0.2706077 -0.2178538,0.4884615 -0.4884615,0.4884615 H 0.73269252 C 0.46208484,6.1057694 0.244231,5.8879156 0.244231,5.6173079 V 0.73269252 c 0,-0.27060768 0.21785384,-0.48846152 0.48846152,-0.48846152 z" /></g><g
       inkscape:label="Layer 1"
       id="layer1-5"
       transform="translate(1.3229167,16.66875)"><path
         id="rect234-0"
         style="fill:#454139;stroke-width:0.529167;stroke-linecap:round;stroke-linejoin:round;paint-order:stroke fill markers;stop-color:#000000"
         d="M 0.52916664,0 H 18.520833 c 0.293158,0 0.529166,0.23600832 0.529166,0.52916664 V 5.8208333 c 0,0.2931583 -0.236008,0.5291666 -0.529166,0.5291666 H 0.52916664 C 0.23600832,6.3499999 0,6.1139916 0,5.8208333 V 0.52916664 C 0,0.23600832 0.23600832,0 0.52916664,0 Z" /><path
         d="m 17.935525,0.793931 c -0.05716,0 -0.116551,0.0125 -0.173384,0.03932 -0.410301,0.1940349 -0.714469,0.2598909 -0.968314,0.2598909 -0.538478,0 -0.851389,-0.296354 -1.471538,-0.296447 -0.312167,-1e-6 -0.70005,0.07445 -1.233041,0.298211 v -0.0035 c 0,-0.165106 -0.13255,-0.297656 -0.297656,-0.297656 -0.165106,0 -0.297656,0.13255 -0.297656,0.297656 l -3.72e-4,4.316016 c 0,0.08139 0.06744,0.148828 0.148828,0.148828 h 0.298028 c 0.08139,0 0.148829,-0.06697 0.148829,-0.148828 v -1.041797 c 0.481273,-0.22194 0.862366,-0.295982 1.193415,-0.295982 0.661262,0 1.121792,0.29561 1.783147,0.29561 0.286587,0 0.610846,-0.05552 1.00552,-0.214778 0.113481,-0.04623 0.185105,-0.1532 0.185105,-0.267611 v -2.803178 c 0,-0.174222 -0.150689,-0.285718 -0.320911,-0.285718 z m -0.274402,1.3187709 c -0.297563,0.130597 -0.537734,0.191523 -0.74414,0.209197 v 0.746094 c 0.236636,-0.01374 0.479877,-0.06468 0.74414,-0.161293 v 0.760326 c -0.212359,0.06921 -0.408626,0.103063 -0.595591,0.103063 -0.05067,0 -0.09962,-0.004 -0.148549,-0.0083 v -0.693812 c -0.04126,0.0024 -0.08272,0.0061 -0.123621,0.0061 -0.240171,0 -0.440438,-0.0423 -0.62052,-0.09376 v 0.62238 c -0.221475,-0.05632 -0.466669,-0.106133 -0.74414,-0.120737 v -0.706024 c -0.03535,0.0056 -0.06976,0.0019 -0.106971,0.0019 -0.183244,0 -0.403696,0.04093 -0.63717,0.109761 v 0.642751 c -0.193477,0.04837 -0.391604,0.1079 -0.595313,0.187896 v -0.592522 l 0.230405,-0.09665 c 0.130504,-0.05404 0.249566,-0.09683 0.364908,-0.141479 v -0.759954 c -0.177664,0.04744 -0.37114,0.109761 -0.595313,0.203709 v -0.590662 l 0.230405,-0.09664 c 0.130504,-0.05479 0.249566,-0.09711 0.364908,-0.133853 v 0.61773 c 0.245473,-0.06468 0.456623,-0.0946 0.636984,-0.09451 0.03788,0 0.0714,0.0041 0.107157,0.0062 v -0.640966 c 0.173012,0.0146 0.31998,0.06065 0.494853,0.119063 0.07906,0.02605 0.162781,0.05228 0.249287,0.07711 v 0.614568 c 0.193384,0.06362 0.385558,0.12055 0.62052,0.12055 0.03913,0 0.08168,-0.0044 0.123621,-0.008 v -0.639501 c 0.236636,-0.01374 0.479877,-0.06468 0.74414,-0.161293 z m -2.232421,-0.07348 v 0.744513 c 0.173105,0.0146 0.319701,0.06067 0.495132,0.119063 0.07879,0.0266 0.162502,0.05265 0.249008,0.07776 v -0.771116 c -0.222312,-0.07348 -0.450205,-0.152548 -0.74414,-0.170222 z"
         id="path2876-4"
         style="fill:#efede7;fill-opacity:1;stroke-width:0.00930175" /><path
         id="rect3986-7"
         style="fill:#efede7;fill-opacity:1;stroke-width:0.349868;stroke-linecap:round;stroke-linejoin:round;paint-order:stroke fill markers;stop-color:#000000"
         d="m 8.8373615,1.4979245 c 0,0 -1.467804,-0.00602 -1.467804,1.5962711 0,0.1938263 0.1560412,0.3498677 0.3498676,0.3498677 h 2.1596804 c 0.1938275,0 0.3498685,-0.1560414 0.3498685,-0.3498677 0,-1.5840909 -1.3916125,-1.5962711 -1.3916125,-1.5962711 z m 2.1265395,0.4622763 c -0.288657,0.00363 -0.519677,0.2372995 -0.519677,0.5268514 v 0.2043173 0.053642 l 0.0021,0.00205 c 0.0048,0.06334 0.01751,0.1243626 0.03724,0.1821089 -0.02175,0.4877291 -0.1841,0.6539673 -0.4838015,0.7086186 h -3.42e-4 c -0.004,-1.972e-4 -0.0082,-3.417e-4 -0.0123,-3.417e-4 H 7.3856158 c -0.1340049,0 -0.2419006,0.1078958 -0.2419006,0.2419007 V 3.88994 c 0,0.1340049 0.1078957,0.2419007 0.2419006,0.2419007 h 0.233359 c -0.00839,0.027209 -0.012983,0.056064 -0.012983,0.0861 V 4.562 c 0,0.1608057 0.1296115,0.2900758 0.2904175,0.2900758 h 0.376176 c 0.1608058,0 0.2900758,-0.1292701 0.2900758,-0.2900758 V 4.2179404 c 0,-0.030036 -0.00459,-0.058891 -0.012983,-0.0861 h 0.5008848 c -0.00839,0.027209 -0.012983,0.056064 -0.012983,0.0861 v 0.3440593 c 0,0.1608057 0.1296115,0.2900758 0.2904175,0.2900758 h 0.3761751 c 0.160803,0 0.290417,-0.1292701 0.290417,-0.2900758 V 4.2179404 c 0,-0.022495 -0.0027,-0.044259 -0.0075,-0.065258 0.5564815,-0.1300351 0.8310865,-0.4070232 0.9231865,-0.7793438 0.06573,0.02545 0.135949,0.041691 0.209441,0.04715 l 0.0021,0.00205 h 0.0533 0.204316 c 0.291834,0 0.526852,-0.2350196 0.526852,-0.5268514 V 2.7344196 l -0.0014,-0.00137 c 7.93e-4,-0.013788 0.0014,-0.027661 0.0014,-0.041683 0,-0.4049919 -0.326178,-0.7311687 -0.731168,-0.7311687 -0.01404,0 -0.02785,5.931e-4 -0.04169,0.00137 l -0.0014,-0.00137 H 10.97076 c -0.0022,0 -0.0046,-2.86e-5 -0.0068,0 z m 0.08747,0.7311687 a 0.12363122,0.12363122 0 0 1 0.123684,0.1236837 0.12363122,0.12363122 0 0 1 -0.123684,0.1236837 0.12363122,0.12363122 0 0 1 -0.123342,-0.1236837 0.12363122,0.12363122 0 0 1 0.123342,-0.1236837 z" /><path
         id="rect4181-6"
         style="fill:#efede7;stroke-width:0.435093;stroke-linecap:round;stroke-linejoin:round;paint-order:stroke fill markers;stop-color:#000000"
         d="m 1.9650795,2.874191 h 2.4198409 c 0.1666481,0 0.3008089,0.1341608 0.3008089,0.300809 0,0.1666481 -0.1341608,0.3008089 -0.3008089,0.3008089 H 1.9650795 c -0.1666481,0 -0.3008089,-0.1341608 -0.3008089,-0.3008089 0,-0.1666482 0.1341608,-0.300809 0.3008089,-0.300809 z" /><path
         id="rect10610"
         style="fill:none;stroke:#756cb2;stroke-width:0.488462;stroke-linecap:round;stroke-linejoin:round;paint-order:stroke fill markers;stop-color:#000000"
         d="m 7.0826927,0.244231 h 4.8846153 c 0.270608,0 0.488462,0.21785384 0.488462,0.48846152 V 5.6173079 c 0,0.2706077 -0.217854,0.4884615 -0.488462,0.4884615 H 7.0826927 c -0.2706077,0 -0.4884616,-0.2178538 -0.4884616,-0.4884615 V 0.73269252 c 0,-0.27060768 0.2178539,-0.48846152 0.4884616,-0.48846152 z" /></g><g
       id="g9059"
       transform="translate(1.3229167,39.6875)"><path
         id="rect234-1"
         style="fill:#454139;stroke-width:0.529167;stroke-linecap:round;stroke-linejoin:round;paint-order:stroke fill markers;stop-color:#000000"
         d="M 0.52916664,0 H 18.520833 c 0.293158,0 0.529166,0.23600832 0.529166,0.52916664 V 5.8208333 c 0,0.2931583 -0.236008,0.5291666 -0.529166,0.5291666 H 0.52916664 C 0.23600832,6.3499999 0,6.1139916 0,5.8208333 V 0.52916664 C 0,0.23600832 0.23600832,0 0.52916664,0 Z" /><g
         id="g7526"
         transform="translate(-0.0229948,-6.6915541)"><path
           id="rect4127-8"
           style="fill:#756cb2;stroke-width:0.529167;stroke-linecap:round;stroke-linejoin:round;paint-order:stroke fill markers;stop-color:#000000"
           d="m 13.252161,6.6915541 h 5.291667 c 0.293158,0 0.529167,0.2360083 0.529167,0.5291666 v 5.2916663 c 0,0.293159 -0.236009,0.529167 -0.529167,0.529167 h -5.291667 c -0.293158,0 -0.529166,-0.236008 -0.529166,-0.529167 V 7.2207207 c 0,-0.2931583 0.236008,-0.5291666 0.529166,-0.5291666 z" /><path
           d="m 17.95852,7.4854851 c -0.05716,0 -0.116551,0.0125 -0.173384,0.03932 -0.410301,0.1940349 -0.714469,0.2598909 -0.968314,0.2598909 -0.538478,0 -0.851389,-0.296354 -1.471538,-0.296447 -0.312167,-1e-6 -0.70005,0.07445 -1.233041,0.298211 v -0.0035 c 0,-0.165106 -0.13255,-0.297656 -0.297656,-0.297656 -0.165106,0 -0.297656,0.13255 -0.297656,0.297656 l -3.72e-4,4.316016 c 0,0.08139 0.06744,0.148828 0.148828,0.148828 h 0.298028 c 0.08139,0 0.148829,-0.06697 0.148829,-0.148828 v -1.041797 c 0.481273,-0.22194 0.862366,-0.295982 1.193415,-0.295982 0.661262,0 1.121792,0.29561 1.783147,0.29561 0.286587,0 0.610846,-0.05552 1.00552,-0.214778 0.113481,-0.04623 0.185105,-0.1532 0.185105,-0.267611 V 7.77124 c 0,-0.174222 -0.150689,-0.285718 -0.320911,-0.285718 z M 17.684118,8.804256 c -0.297563,0.130597 -0.537734,0.191523 -0.74414,0.209197 v 0.746094 c 0.236636,-0.01374 0.479877,-0.06468 0.74414,-0.161293 v 0.760326 c -0.212359,0.06921 -0.408626,0.103063 -0.595591,0.103063 -0.05067,0 -0.09962,-0.004 -0.148549,-0.0083 V 9.759531 c -0.04126,0.0024 -0.08272,0.0061 -0.123621,0.0061 -0.240171,0 -0.440438,-0.0423 -0.62052,-0.09376 v 0.62238 c -0.221475,-0.05632 -0.466669,-0.106133 -0.74414,-0.120737 V 9.46749 c -0.03535,0.0056 -0.06976,0.0019 -0.106971,0.0019 -0.183244,0 -0.403696,0.04093 -0.63717,0.109761 v 0.642751 c -0.193477,0.04837 -0.391604,0.1079 -0.595313,0.187896 V 9.817276 l 0.230405,-0.09665 c 0.130504,-0.05404 0.249566,-0.09683 0.364908,-0.141479 V 8.819193 c -0.177664,0.04744 -0.37114,0.109761 -0.595313,0.203709 V 8.43224 L 14.342648,8.3356 c 0.130504,-0.05479 0.249566,-0.09711 0.364908,-0.133853 v 0.61773 c 0.245473,-0.06468 0.456623,-0.0946 0.636984,-0.09451 0.03788,0 0.0714,0.0041 0.107157,0.0062 V 8.090201 c 0.173012,0.0146 0.31998,0.06065 0.494853,0.119063 0.07906,0.02605 0.162781,0.05228 0.249287,0.07711 v 0.614568 c 0.193384,0.06362 0.385558,0.12055 0.62052,0.12055 0.03913,0 0.08168,-0.0044 0.123621,-0.008 V 8.373991 c 0.236636,-0.01374 0.479877,-0.06468 0.74414,-0.161293 z m -2.232421,-0.07348 v 0.744513 c 0.173105,0.0146 0.319701,0.06067 0.495132,0.119063 0.07879,0.0266 0.162502,0.05265 0.249008,0.07776 V 8.900996 C 15.973525,8.827516 15.745632,8.748448 15.451697,8.730774 Z"
           id="path2876-0"
           style="fill:#efede7;fill-opacity:1;stroke-width:0.00930175" /></g><path
         id="rect3986-1"
         style="fill:#efede7;fill-opacity:1;stroke-width:0.349868;stroke-linecap:round;stroke-linejoin:round;paint-order:stroke fill markers;stop-color:#000000"
         d="m 8.8373615,1.4979245 c 0,0 -1.467804,-0.00602 -1.467804,1.5962711 0,0.1938263 0.1560412,0.3498677 0.3498676,0.3498677 h 2.1596804 c 0.1938275,0 0.3498685,-0.1560414 0.3498685,-0.3498677 0,-1.5840909 -1.3916125,-1.5962711 -1.3916125,-1.5962711 z m 2.1265395,0.4622763 c -0.288657,0.00363 -0.519677,0.2372995 -0.519677,0.5268514 v 0.2043173 0.053642 l 0.0021,0.00205 c 0.0048,0.06334 0.01751,0.1243626 0.03724,0.1821089 -0.02175,0.4877291 -0.1841,0.6539673 -0.4838015,0.7086186 h -3.42e-4 c -0.004,-1.972e-4 -0.0082,-3.417e-4 -0.0123,-3.417e-4 H 7.3856158 c -0.1340049,0 -0.2419006,0.1078958 -0.2419006,0.2419007 V 3.88994 c 0,0.1340049 0.1078957,0.2419007 0.2419006,0.2419007 h 0.233359 c -0.00839,0.027209 -0.012983,0.056064 -0.012983,0.0861 V 4.562 c 0,0.1608057 0.1296115,0.2900758 0.2904175,0.2900758 h 0.376176 c 0.1608058,0 0.2900758,-0.1292701 0.2900758,-0.2900758 V 4.2179404 c 0,-0.030036 -0.00459,-0.058891 -0.012983,-0.0861 h 0.5008848 c -0.00839,0.027209 -0.012983,0.056064 -0.012983,0.0861 v 0.3440593 c 0,0.1608057 0.1296115,0.2900758 0.2904175,0.2900758 h 0.3761751 c 0.160803,0 0.290417,-0.1292701 0.290417,-0.2900758 V 4.2179404 c 0,-0.022495 -0.0027,-0.044259 -0.0075,-0.065258 0.5564815,-0.1300351 0.8310865,-0.4070232 0.9231865,-0.7793438 0.06573,0.02545 0.135949,0.041691 0.209441,0.04715 l 0.0021,0.00205 h 0.0533 0.204316 c 0.291834,0 0.526852,-0.2350196 0.526852,-0.5268514 V 2.7344196 l -0.0014,-0.00137 c 7.93e-4,-0.013788 0.0014,-0.027661 0.0014,-0.041683 0,-0.4049919 -0.326178,-0.7311687 -0.731168,-0.7311687 -0.01404,0 -0.02785,5.931e-4 -0.04169,0.00137 l -0.0014,-0.00137 H 10.97076 c -0.0022,0 -0.0046,-2.86e-5 -0.0068,0 z m 0.08747,0.7311687 a 0.12363122,0.12363122 0 0 1 0.123684,0.1236837 0.12363122,0.12363122 0 0 1 -0.123684,0.1236837 0.12363122,0.12363122 0 0 1 -0.123342,-0.1236837 0.12363122,0.12363122 0 0 1 0.123342,-0.1236837 z" /><path
         id="rect4181-80"
         style="fill:#efede7;stroke-width:0.435093;stroke-linecap:round;stroke-linejoin:round;paint-order:stroke fill markers;stop-color:#000000"
         d="m 1.9650795,2.874191 h 2.4198409 c 0.1666481,0 0.3008089,0.1341608 0.3008089,0.300809 0,0.1666481 -0.1341608,0.3008089 -0.3008089,0.3008089 H 1.9650795 c -0.1666481,0 -0.3008089,-0.1341608 -0.3008089,-0.3008089 0,-0.1666482 0.1341608,-0.300809 0.3008089,-0.300809 z" /></g><g
       id="g1545"><path
         id="rect234-80"
         style="fill:#454139;stroke-width:0.529167;stroke-linecap:round;stroke-linejoin:round;paint-order:stroke fill markers;stop-color:#000000"
         d="M 1.8520834,8.9958334 H 19.843749 c 0.293159,0 0.529167,0.2360083 0.529167,0.5291666 v 5.291667 c 0,0.293158 -0.236008,0.529166 -0.529167,0.529166 H 1.8520834 c -0.2931583,0 -0.5291667,-0.236008 -0.5291667,-0.529166 V 9.525 c 0,-0.2931583 0.2360084,-0.5291666 0.5291667,-0.5291666 z" /><path
         id="rect3986-5"
         style="fill:#efede7;fill-opacity:1;stroke-width:0.349868;stroke-linecap:round;stroke-linejoin:round;paint-order:stroke fill markers;stop-color:#000000"
         d="m 10.160278,10.493758 c 0,0 -1.4678038,-0.006 -1.4678038,1.596271 0,0.193826 0.1560412,0.349868 0.3498676,0.349868 h 2.1596802 c 0.193828,0 0.349869,-0.156042 0.349869,-0.349868 0,-1.584091 -1.391613,-1.596271 -1.391613,-1.596271 z m 2.12654,0.462276 c -0.288657,0.0036 -0.519677,0.2373 -0.519677,0.526852 v 0.204317 0.05364 l 0.0021,0.0021 c 0.0048,0.06334 0.01751,0.124363 0.03724,0.182109 -0.02175,0.487729 -0.1841,0.653967 -0.483802,0.708618 h -3.42e-4 c -0.004,-1.97e-4 -0.0082,-3.41e-4 -0.0123,-3.41e-4 H 8.7085325 c -0.1340049,0 -0.2419006,0.107896 -0.2419006,0.2419 v 0.01059 c 0,0.134005 0.1078957,0.241901 0.2419006,0.241901 h 0.233359 c -0.00839,0.02721 -0.012983,0.05606 -0.012983,0.0861 v 0.344059 c 0,0.160806 0.1296115,0.290076 0.2904175,0.290076 h 0.376176 c 0.1608058,0 0.2900758,-0.12927 0.2900758,-0.290076 v -0.344059 c 0,-0.03004 -0.00459,-0.05889 -0.012983,-0.0861 H 10.37348 c -0.0084,0.02721 -0.01298,0.05606 -0.01298,0.0861 v 0.344059 c 0,0.160806 0.129611,0.290076 0.290417,0.290076 h 0.376175 c 0.160803,0 0.290417,-0.12927 0.290417,-0.290076 v -0.344059 c 0,-0.0225 -0.0027,-0.04426 -0.0075,-0.06526 0.556482,-0.130035 0.831087,-0.407023 0.923187,-0.779344 0.06573,0.02545 0.135949,0.04169 0.209441,0.04715 l 0.0021,0.0021 h 0.0533 0.204316 c 0.291834,0 0.526852,-0.23502 0.526852,-0.526851 v -0.161268 l -0.0014,-0.0014 c 7.93e-4,-0.01379 0.0014,-0.02766 0.0014,-0.04168 0,-0.404992 -0.326178,-0.731169 -0.731168,-0.731169 -0.01404,0 -0.02785,5.93e-4 -0.04169,0.0014 l -0.0014,-0.0014 h -0.161267 c -0.0022,0 -0.0046,-2.8e-5 -0.0068,0 z m 0.08747,0.731169 a 0.12363122,0.12363122 0 0 1 0.123684,0.123684 0.12363122,0.12363122 0 0 1 -0.123684,0.123683 0.12363122,0.12363122 0 0 1 -0.123342,-0.123683 0.12363122,0.12363122 0 0 1 0.123342,-0.123684 z" /><path
         id="rect391"
         style="fill:#756cb2;stroke-width:0.529167;stroke-linecap:round;stroke-linejoin:round;paint-order:stroke fill markers;stop-color:#000000"
         d="M 1.8520834,8.9958334 H 7.14375 c 0.2931583,0 0.5291667,0.2360083 0.5291667,0.5291666 v 5.291667 c 0,0.293158 -0.2360084,0.529166 -0.5291667,0.529166 H 1.8520834 c -0.2931583,0 -0.5291667,-0.236008 -0.5291667,-0.529166 V 9.525 c 0,-0.2931583 0.2360084,-0.5291666 0.5291667,-0.5291666 z" /><path
         id="rect4181-0"
         style="fill:#efede7;stroke-width:0.435093;stroke-linecap:round;stroke-linejoin:round;paint-order:stroke fill markers;stop-color:#000000"
         d="m 3.2879963,11.870025 h 2.4198408 c 0.1666481,0 0.3008089,0.13416 0.3008089,0.300809 0,0.166648 -0.1341608,0.300808 -0.3008089,0.300808 H 3.2879963 c -0.1666481,0 -0.3008089,-0.13416 -0.3008089,-0.300808 0,-0.166649 0.1341608,-0.300809 0.3008089,-0.300809 z" /><path
         d="m 19.258442,9.7897645 c -0.05716,0 -0.116551,0.0125 -0.173384,0.03932 -0.410301,0.1940345 -0.714469,0.2598905 -0.968314,0.2598905 -0.538478,0 -0.851389,-0.2963535 -1.471538,-0.2964465 -0.312167,-10e-7 -0.70005,0.07445 -1.233041,0.2982105 v -0.0035 c 0,-0.1651055 -0.13255,-0.2976555 -0.297656,-0.2976555 -0.165106,0 -0.297656,0.13255 -0.297656,0.2976555 l -3.72e-4,4.316016 c 0,0.08139 0.06744,0.148828 0.148828,0.148828 h 0.298028 c 0.08139,0 0.148829,-0.06697 0.148829,-0.148828 v -1.041797 c 0.481273,-0.22194 0.862366,-0.295982 1.193415,-0.295982 0.661262,0 1.121792,0.29561 1.783147,0.29561 0.286587,0 0.610846,-0.05552 1.00552,-0.214778 0.113481,-0.04623 0.185105,-0.1532 0.185105,-0.267611 v -2.803178 c 0,-0.1742215 -0.150689,-0.2857175 -0.320911,-0.2857175 z M 18.98404,11.108535 c -0.297563,0.130597 -0.537734,0.191523 -0.74414,0.209197 v 0.746094 c 0.236636,-0.01374 0.479877,-0.06468 0.74414,-0.161293 v 0.760326 c -0.212359,0.06921 -0.408626,0.103063 -0.595591,0.103063 -0.05067,0 -0.09962,-0.004 -0.148549,-0.0083 V 12.06381 c -0.04126,0.0024 -0.08272,0.0061 -0.123621,0.0061 -0.240171,0 -0.440438,-0.0423 -0.62052,-0.09376 v 0.62238 c -0.221475,-0.05632 -0.466669,-0.106133 -0.74414,-0.120737 v -0.706024 c -0.03535,0.0056 -0.06976,0.0019 -0.106971,0.0019 -0.183244,0 -0.403696,0.04093 -0.63717,0.109761 v 0.642751 c -0.193477,0.04837 -0.391604,0.1079 -0.595313,0.187896 v -0.592522 l 0.230405,-0.09665 c 0.130504,-0.05404 0.249566,-0.09683 0.364908,-0.141479 v -0.759954 c -0.177664,0.04744 -0.37114,0.109761 -0.595313,0.203709 v -0.590662 l 0.230405,-0.09664 c 0.130504,-0.05479 0.249566,-0.09711 0.364908,-0.133853 v 0.61773 c 0.245473,-0.06468 0.456623,-0.0946 0.636984,-0.09451 0.03788,0 0.0714,0.0041 0.107157,0.0062 V 10.39448 c 0.173012,0.0146 0.31998,0.06065 0.494853,0.119063 0.07906,0.02605 0.162781,0.05228 0.249287,0.07711 v 0.614568 c 0.193384,0.06362 0.385558,0.12055 0.62052,0.12055 0.03913,0 0.08168,-0.0044 0.123621,-0.008 V 10.67827 c 0.236636,-0.01374 0.479877,-0.06468 0.74414,-0.161293 z m -2.232421,-0.07348 v 0.744513 c 0.173105,0.0146 0.319701,0.06067 0.495132,0.119063 0.07879,0.0266 0.162502,0.05265 0.249008,0.07776 v -0.771116 c -0.222312,-0.07348 -0.450205,-0.152548 -0.74414,-0.170222 z"
         id="path6776-7"
         style="fill:#efede7;fill-opacity:1;stroke-width:0.00930175" /></g><rect
       style="fill:#25201d;fill-opacity:1;stroke:none;stroke-width:0.529167;stroke-linecap:round;stroke-linejoin:round;paint-order:stroke fill markers;stop-color:#000000"
       id="rect4829"
       width="23.887144"
       height="44.650585"
       x="22.578838"
       y="1.3229166"
       ry="0.48846152" /><g
       aria-label="default hover
"
       id="text1601"
       style="font-size:2.82222px;line-height:1.25;fill:#efede7;stroke-width:0.264583"
       transform="translate(5.3981264)"><path
         d="m 23.029336,5.3181266 q -0.211666,0 -0.338667,-0.1460502 -0.127,-0.1481669 -0.127,-0.4402674 0,-0.2921004 0.127,-0.4402673 0.129117,-0.1502836 0.340784,-0.1502836 0.131234,0 0.213784,0.048683 0.08467,0.048683 0.137583,0.1185335 h 0.0127 q -0.0042,-0.027517 -0.0085,-0.080433 -0.0042,-0.055033 -0.0042,-0.086784 V 3.6882908 h 0.186267 v 1.6086691 h -0.150283 l -0.02752,-0.1524003 h -0.0085 q -0.0508,0.071967 -0.135467,0.1227669 -0.08467,0.0508 -0.218017,0.0508 z m 0.02963,-0.1545169 q 0.179917,0 0.251884,-0.097367 0.07408,-0.099483 0.07408,-0.2984505 v -0.033867 q 0,-0.211667 -0.06985,-0.3238505 -0.06985,-0.1143002 -0.258234,-0.1143002 -0.150283,0 -0.226483,0.1206502 -0.07408,0.1185335 -0.07408,0.3196172 0,0.2032003 0.07408,0.3153838 0.0762,0.1121835 0.2286,0.1121835 z"
         style="font-size:2.11667px"
         id="path4546" /><path
         d="m 24.367071,4.1412581 q 0.143934,0 0.249767,0.0635 0.105834,0.0635 0.160867,0.179917 0.05715,0.1143001 0.05715,0.268817 v 0.1121835 h -0.776817 q 0.0042,0.192617 0.09737,0.2942171 0.09525,0.099483 0.264584,0.099483 0.10795,0 0.1905,-0.01905 0.08467,-0.021167 0.173567,-0.059267 v 0.1629836 q -0.08678,0.0381 -0.17145,0.055033 -0.08467,0.01905 -0.201084,0.01905 -0.162983,0 -0.28575,-0.065617 -0.122767,-0.065617 -0.192617,-0.1947336 -0.06773,-0.1291169 -0.06773,-0.3196172 0,-0.1862669 0.06138,-0.3196171 0.0635,-0.1333502 0.175684,-0.205317 0.1143,-0.071967 0.264583,-0.071967 z m -0.0021,0.1524002 q -0.13335,0 -0.211667,0.086784 -0.0762,0.084667 -0.09102,0.237067 h 0.577851 q -0.0021,-0.1439335 -0.06773,-0.2328336 -0.06562,-0.091017 -0.207433,-0.091017 z"
         style="font-size:2.11667px"
         id="path4548" /><path
         d="m 25.645538,4.3063584 h -0.28575 V 5.2969599 H 25.173521 V 4.3063584 h -0.198967 v -0.086784 l 0.198967,-0.0635 V 4.090458 q 0,-0.2201336 0.09525,-0.3153838 0.09737,-0.097367 0.27305,-0.097367 0.06562,0 0.122767,0.0127 0.05715,0.010583 0.09737,0.0254 l -0.04868,0.1460502 q -0.03387,-0.010583 -0.07832,-0.021167 -0.04445,-0.010583 -0.09102,-0.010583 -0.09313,0 -0.1397,0.0635 -0.04445,0.061383 -0.04445,0.1947337 v 0.074083 h 0.28575 z"
         style="font-size:2.11667px"
         id="path4550" /><path
         d="m 26.280539,4.1433748 q 0.207434,0 0.306917,0.091017 0.09948,0.091017 0.09948,0.2899838 V 5.2969599 H 26.551473 L 26.515489,5.136093 h -0.0085 q -0.07408,0.093133 -0.156634,0.1375835 -0.08255,0.04445 -0.224367,0.04445 -0.154517,0 -0.256117,-0.080433 -0.1016,-0.08255 -0.1016,-0.256117 0,-0.1693336 0.13335,-0.2603504 0.13335,-0.093133 0.410634,-0.1016002 l 0.192617,-0.00635 v -0.067733 q 0,-0.1418169 -0.06138,-0.1968503 -0.06138,-0.055034 -0.173567,-0.055034 -0.0889,0 -0.169334,0.027517 -0.08043,0.0254 -0.150284,0.059267 l -0.05715,-0.1397002 q 0.07408,-0.040217 0.175684,-0.067733 0.1016,-0.029633 0.211667,-0.029633 z m 0.22225,0.5990176 -0.167217,0.00635 q -0.211667,0.00847 -0.294217,0.067733 -0.08043,0.059267 -0.08043,0.1672169 0,0.09525 0.05715,0.1397002 0.05927,0.04445 0.150283,0.04445 0.141817,0 0.237067,-0.078317 0.09737,-0.080433 0.09737,-0.2455337 z"
         style="font-size:2.11667px"
         id="path4552" /><path
         d="m 27.986577,4.1624248 v 1.1345351 h -0.1524 L 27.80666,5.1466763 h -0.0085 q -0.05503,0.0889 -0.1524,0.1312335 -0.09737,0.040217 -0.207434,0.040217 -0.205317,0 -0.309033,-0.097367 -0.103717,-0.099483 -0.103717,-0.3153839 V 4.1624248 h 0.188383 v 0.7302511 q 0,0.2709338 0.251884,0.2709338 0.188384,0 0.26035,-0.1058335 0.07408,-0.1058335 0.07408,-0.3048005 V 4.1624248 Z"
         style="font-size:2.11667px"
         id="path4554" /><path
         d="M 28.532677,5.2969599 H 28.34641 V 3.6882908 h 0.186267 z"
         style="font-size:2.11667px"
         id="path4556" /><path
         d="m 29.271394,5.1657263 q 0.04233,0 0.08678,-0.00635 0.04445,-0.00635 0.07197,-0.016933 v 0.1418169 q -0.02963,0.014817 -0.08467,0.023283 -0.05503,0.010583 -0.105833,0.010583 -0.0889,0 -0.1651,-0.029633 -0.07408,-0.03175 -0.120651,-0.1079502 -0.04657,-0.0762 -0.04657,-0.2137836 v -0.660401 h -0.16086 v -0.0889 l 0.162983,-0.074083 0.07408,-0.2413004 h 0.110067 v 0.2603504 h 0.328083 v 0.143933 H 29.093594 V 4.962526 q 0,0.1037169 0.04868,0.1545169 0.0508,0.048683 0.129117,0.048683 z"
         style="font-size:2.11667px"
         id="path4558" /><path
         d="m 30.39323,3.6882908 v 0.4720173 q 0,0.084667 -0.01058,0.1587503 h 0.0127 q 0.05503,-0.086784 0.148167,-0.1312335 0.09525,-0.04445 0.205317,-0.04445 0.205317,0 0.309034,0.099483 0.105833,0.097367 0.105833,0.3153838 v 0.7387178 h -0.18415 V 4.5709421 q 0,-0.2730504 -0.254,-0.2730504 -0.1905,0 -0.262467,0.1079502 -0.06985,0.1058334 -0.06985,0.3048004 V 5.2969599 H 30.206963 V 3.6882908 Z"
         style="font-size:2.11667px"
         id="path4560" /><path
         d="m 32.501433,4.7275757 q 0,0.2815171 -0.143934,0.436034 -0.141816,0.1545169 -0.385234,0.1545169 -0.150283,0 -0.268817,-0.067734 -0.116416,-0.06985 -0.18415,-0.2010836 -0.06773,-0.1333502 -0.06773,-0.3217338 0,-0.2815171 0.1397,-0.4339174 0.141817,-0.1524002 0.387351,-0.1524002 0.1524,0 0.270933,0.06985 0.118534,0.067734 0.184151,0.198967 0.06773,0.1291169 0.06773,0.3175011 z m -0.857251,0 q 0,0.2010836 0.07832,0.3196171 0.08043,0.1164169 0.254001,0.1164169 0.17145,0 0.251884,-0.1164169 0.08043,-0.1185335 0.08043,-0.3196171 0,-0.2010837 -0.08043,-0.3153838 -0.08043,-0.1143002 -0.254001,-0.1143002 -0.173567,0 -0.251884,0.1143002 -0.07832,0.1143001 -0.07832,0.3153838 z"
         style="font-size:2.11667px"
         id="path4562" /><path
         d="M 33.003082,5.2969599 32.573398,4.1624248 h 0.198967 l 0.2413,0.6688677 q 0.01693,0.046567 0.03598,0.1037168 0.01905,0.05715 0.03387,0.1100669 0.01482,0.052917 0.02117,0.086783 h 0.0085 q 0.0063,-0.033867 0.02328,-0.086783 0.01693,-0.055033 0.03598,-0.1100669 0.01905,-0.05715 0.03598,-0.1037168 l 0.2413,-0.6688677 h 0.198967 l -0.431801,1.1345351 z"
         style="font-size:2.11667px"
         id="path4564" /><path
         d="m 34.266732,4.1412581 q 0.143934,0 0.249767,0.0635 0.105834,0.0635 0.160867,0.179917 0.05715,0.1143001 0.05715,0.268817 v 0.1121835 h -0.776818 q 0.0042,0.192617 0.09737,0.2942171 0.09525,0.099483 0.264584,0.099483 0.10795,0 0.1905,-0.01905 0.08467,-0.021167 0.173567,-0.059267 v 0.1629836 q -0.08678,0.0381 -0.17145,0.055033 -0.08467,0.01905 -0.201084,0.01905 -0.162983,0 -0.28575,-0.065617 -0.122767,-0.065617 -0.192617,-0.1947336 -0.06773,-0.1291169 -0.06773,-0.3196172 0,-0.1862669 0.06138,-0.3196171 0.0635,-0.1333502 0.175683,-0.205317 0.114301,-0.071967 0.264584,-0.071967 z m -0.0021,0.1524002 q -0.13335,0 -0.211667,0.086784 -0.0762,0.084667 -0.09102,0.237067 h 0.57785 q -0.0021,-0.1439335 -0.06773,-0.2328336 -0.06562,-0.091017 -0.207434,-0.091017 z"
         style="font-size:2.11667px"
         id="path4566" /><path
         d="m 35.551549,4.1412581 q 0.03175,0 0.06773,0.00423 0.03598,0.00212 0.06562,0.00847 l -0.02328,0.1714503 q -0.02752,-0.00635 -0.06138,-0.010583 -0.03387,-0.00423 -0.06138,-0.00423 -0.08678,0 -0.162984,0.048683 -0.0762,0.046567 -0.122767,0.1333502 -0.04445,0.084667 -0.04445,0.198967 V 5.2969599 H 35.022381 V 4.1624248 h 0.152401 l 0.02117,0.2074337 h 0.0085 q 0.05292,-0.093134 0.1397,-0.1608669 0.0889,-0.067734 0.207434,-0.067734 z"
         style="font-size:2.11667px"
         id="path4568" /></g><text
       xml:space="preserve"
       transform="scale(0.26458334)"
       id="text3107"
       style="font-style:normal;font-weight:normal;font-size:40px;line-height:1.25;font-family:sans-serif;white-space:pre;shape-inside:url(#rect3109);display:inline;fill:#000000;fill-opacity:1;stroke:none" /><g
       aria-label="default selected
"
       id="text3288"
       style="font-size:2.82224px;line-height:1.25;fill:#efede7;stroke-width:0.264585"
       transform="translate(4.2053859)"><path
         d="m 23.029335,12.991043 q -0.211667,0 -0.338668,-0.14605 -0.127,-0.148167 -0.127,-0.440268 0,-0.2921 0.127,-0.440267 0.129117,-0.150283 0.340784,-0.150283 0.131234,0 0.213784,0.04868 0.08467,0.04868 0.137583,0.118533 h 0.0127 q -0.0042,-0.02752 -0.0085,-0.08043 -0.0042,-0.05503 -0.0042,-0.08678 V 11.36121 h 0.186267 v 1.608669 h -0.150283 l -0.02752,-0.1524 h -0.0085 q -0.0508,0.07197 -0.135466,0.122767 -0.08467,0.0508 -0.218017,0.0508 z m 0.02963,-0.154517 q 0.179917,0 0.251884,-0.09737 0.07408,-0.09948 0.07408,-0.29845 v -0.03387 q 0,-0.211667 -0.06985,-0.32385 -0.06985,-0.114301 -0.258234,-0.114301 -0.150283,0 -0.226483,0.120651 -0.07408,0.118533 -0.07408,0.319617 0,0.2032 0.07408,0.315384 0.0762,0.112183 0.2286,0.112183 z"
         style="font-size:2.11667px"
         id="path4571" /><path
         d="m 24.367069,11.814175 q 0.143934,0 0.249768,0.0635 0.105833,0.0635 0.160866,0.179917 0.05715,0.1143 0.05715,0.268817 v 0.112183 h -0.776818 q 0.0042,0.192617 0.09737,0.294217 0.09525,0.09948 0.264584,0.09948 0.10795,0 0.190501,-0.01905 0.08467,-0.02117 0.173566,-0.05927 v 0.162984 q -0.08678,0.0381 -0.17145,0.05503 -0.08467,0.01905 -0.201083,0.01905 -0.162984,0 -0.285751,-0.06562 -0.122767,-0.06562 -0.192617,-0.194733 -0.06773,-0.129117 -0.06773,-0.319618 0,-0.186267 0.06138,-0.319617 0.0635,-0.13335 0.175684,-0.205317 0.1143,-0.07197 0.264583,-0.07197 z m -0.0021,0.1524 q -0.13335,0 -0.211667,0.08678 -0.0762,0.08467 -0.09102,0.237067 h 0.577851 q -0.0021,-0.143933 -0.06773,-0.232833 -0.06562,-0.09102 -0.207433,-0.09102 z"
         style="font-size:2.11667px"
         id="path4573" /><path
         d="m 25.645536,11.979275 h -0.28575 v 0.990601 h -0.186267 v -0.990601 h -0.198967 v -0.08678 l 0.198967,-0.0635 v -0.06562 q 0,-0.220133 0.09525,-0.315383 0.09737,-0.09737 0.273051,-0.09737 0.06562,0 0.122766,0.0127 0.05715,0.01058 0.09737,0.0254 l -0.04868,0.14605 q -0.03387,-0.01058 -0.07832,-0.02117 -0.04445,-0.01058 -0.09102,-0.01058 -0.09313,0 -0.1397,0.0635 -0.04445,0.06138 -0.04445,0.194734 v 0.07408 h 0.28575 z"
         style="font-size:2.11667px"
         id="path4575" /><path
         d="m 26.280537,11.816291 q 0.207434,0 0.306917,0.09102 0.09948,0.09102 0.09948,0.289984 v 0.772584 h -0.135467 l -0.03598,-0.160867 h -0.0085 q -0.07408,0.09313 -0.156634,0.137584 -0.08255,0.04445 -0.224367,0.04445 -0.154517,0 -0.256117,-0.08043 -0.1016,-0.08255 -0.1016,-0.256118 0,-0.169333 0.13335,-0.26035 0.13335,-0.09313 0.410634,-0.1016 l 0.192617,-0.0063 v -0.06773 q 0,-0.141816 -0.06138,-0.19685 -0.06138,-0.05503 -0.173567,-0.05503 -0.0889,0 -0.169334,0.02752 -0.08043,0.0254 -0.150283,0.05927 l -0.05715,-0.1397 q 0.07408,-0.04022 0.175684,-0.06773 0.1016,-0.02963 0.211667,-0.02963 z m 0.22225,0.599018 -0.167217,0.0063 q -0.211667,0.0085 -0.294217,0.06773 -0.08043,0.05927 -0.08043,0.167217 0,0.09525 0.05715,0.1397 0.05927,0.04445 0.150284,0.04445 0.141816,0 0.237067,-0.07832 0.09737,-0.08043 0.09737,-0.245534 z"
         style="font-size:2.11667px"
         id="path4577" /><path
         d="m 27.986575,11.835341 v 1.134535 h -0.1524 l -0.02752,-0.150283 h -0.0085 q -0.05503,0.0889 -0.1524,0.131233 -0.09737,0.04022 -0.207434,0.04022 -0.205317,0 -0.309033,-0.09737 -0.103717,-0.09948 -0.103717,-0.315384 v -0.742951 h 0.188383 v 0.730251 q 0,0.270934 0.251884,0.270934 0.188384,0 0.260351,-0.105833 0.07408,-0.105834 0.07408,-0.304801 v -0.590551 z"
         style="font-size:2.11667px"
         id="path4579" /><path
         d="m 28.532675,12.969876 h -0.186267 v -1.608669 h 0.186267 z"
         style="font-size:2.11667px"
         id="path4581" /><path
         d="m 29.271392,12.838643 q 0.04233,0 0.08678,-0.0063 0.04445,-0.0063 0.07197,-0.01693 v 0.141817 q -0.02963,0.01482 -0.08467,0.02328 -0.05503,0.01058 -0.105833,0.01058 -0.0889,0 -0.1651,-0.02963 -0.07408,-0.03175 -0.12065,-0.107951 -0.04657,-0.0762 -0.04657,-0.213783 v -0.660401 h -0.160867 v -0.0889 l 0.162983,-0.07408 0.07408,-0.2413 h 0.110067 v 0.26035 h 0.328084 v 0.143934 h -0.328084 v 0.656167 q 0,0.103717 0.04868,0.154517 0.0508,0.04868 0.129117,0.04868 z"
         style="font-size:2.11667px"
         id="path4583" /><path
         d="m 30.945679,12.656609 q 0,0.1651 -0.122767,0.249767 -0.122767,0.08467 -0.330201,0.08467 -0.118533,0 -0.205317,-0.01905 -0.08467,-0.01905 -0.150283,-0.05292 v -0.169333 q 0.06773,0.03387 0.162983,0.0635 0.09737,0.02752 0.196851,0.02752 0.141816,0 0.205317,-0.04445 0.0635,-0.04657 0.0635,-0.122766 0,-0.04233 -0.02328,-0.0762 -0.02328,-0.03387 -0.08467,-0.06773 -0.05927,-0.03387 -0.17145,-0.0762 -0.110067,-0.04233 -0.188383,-0.08467 -0.07832,-0.04233 -0.120651,-0.1016 -0.04233,-0.05927 -0.04233,-0.1524 0,-0.143934 0.116417,-0.222251 0.118533,-0.07832 0.309034,-0.07832 0.103716,0 0.192617,0.02117 0.09102,0.02117 0.169333,0.05503 l -0.0635,0.148167 q -0.07197,-0.02963 -0.150283,-0.0508 -0.07832,-0.02117 -0.160867,-0.02117 -0.114301,0 -0.175684,0.0381 -0.05927,0.03598 -0.05927,0.09948 0,0.04868 0.02752,0.08043 0.02752,0.03175 0.09102,0.0635 0.06562,0.03175 0.173567,0.07197 0.10795,0.04022 0.18415,0.08255 0.0762,0.04233 0.116417,0.103717 0.04022,0.05927 0.04022,0.150283 z"
         style="font-size:2.11667px"
         id="path4585" /><path
         d="m 31.658996,11.814175 q 0.143934,0 0.249767,0.0635 0.105834,0.0635 0.160867,0.179917 0.05715,0.1143 0.05715,0.268817 v 0.112183 h -0.776817 q 0.0042,0.192617 0.09737,0.294217 0.09525,0.09948 0.264584,0.09948 0.10795,0 0.1905,-0.01905 0.08467,-0.02117 0.173567,-0.05927 v 0.162984 q -0.08678,0.0381 -0.17145,0.05503 -0.08467,0.01905 -0.201083,0.01905 -0.162984,0 -0.285751,-0.06562 -0.122767,-0.06562 -0.192617,-0.194733 -0.06773,-0.129117 -0.06773,-0.319618 0,-0.186267 0.06138,-0.319617 0.0635,-0.13335 0.175684,-0.205317 0.1143,-0.07197 0.264583,-0.07197 z m -0.0021,0.1524 q -0.13335,0 -0.211667,0.08678 -0.0762,0.08467 -0.09102,0.237067 h 0.577851 q -0.0021,-0.143933 -0.06773,-0.232833 -0.06562,-0.09102 -0.207433,-0.09102 z"
         style="font-size:2.11667px"
         id="path4587" /><path
         d="m 32.600913,12.969876 h -0.186267 v -1.608669 h 0.186267 z"
         style="font-size:2.11667px"
         id="path4589" /><path
         d="m 33.398896,11.814175 q 0.143934,0 0.249767,0.0635 0.105834,0.0635 0.160867,0.179917 0.05715,0.1143 0.05715,0.268817 v 0.112183 h -0.776818 q 0.0042,0.192617 0.09737,0.294217 0.09525,0.09948 0.264584,0.09948 0.10795,0 0.1905,-0.01905 0.08467,-0.02117 0.173567,-0.05927 v 0.162984 q -0.08678,0.0381 -0.17145,0.05503 -0.08467,0.01905 -0.201084,0.01905 -0.162983,0 -0.28575,-0.06562 -0.122767,-0.06562 -0.192617,-0.194733 -0.06773,-0.129117 -0.06773,-0.319618 0,-0.186267 0.06138,-0.319617 0.0635,-0.13335 0.175683,-0.205317 0.114301,-0.07197 0.264584,-0.07197 z m -0.0021,0.1524 q -0.13335,0 -0.211667,0.08678 -0.0762,0.08467 -0.09102,0.237067 h 0.577851 q -0.0021,-0.143933 -0.06773,-0.232833 -0.06562,-0.09102 -0.207434,-0.09102 z"
         style="font-size:2.11667px"
         id="path4591" /><path
         d="m 34.609629,12.991043 q -0.1524,0 -0.268817,-0.06138 -0.116417,-0.06138 -0.18415,-0.190501 -0.06562,-0.129117 -0.06562,-0.3302 0,-0.209551 0.06773,-0.340784 0.06985,-0.131234 0.1905,-0.192617 0.12065,-0.06138 0.27305,-0.06138 0.08467,0 0.165101,0.01905 0.08255,0.01693 0.13335,0.04233 l -0.05715,0.154517 q -0.0508,-0.01905 -0.118534,-0.03598 -0.06773,-0.01693 -0.127,-0.01693 -0.334434,0 -0.334434,0.429684 0,0.205317 0.08043,0.315384 0.08255,0.10795 0.243417,0.10795 0.09102,0 0.162983,-0.01905 0.07197,-0.01905 0.131234,-0.04657 v 0.165101 q -0.05715,0.02963 -0.127,0.04445 -0.06773,0.01693 -0.165101,0.01693 z"
         style="font-size:2.11667px"
         id="path4593" /><path
         d="m 35.54943,12.838643 q 0.04233,0 0.08678,-0.0063 0.04445,-0.0063 0.07197,-0.01693 v 0.141817 q -0.02963,0.01482 -0.08467,0.02328 -0.05503,0.01058 -0.105833,0.01058 -0.0889,0 -0.1651,-0.02963 -0.07408,-0.03175 -0.12065,-0.107951 -0.04657,-0.0762 -0.04657,-0.213783 V 11.979325 H 35.02449 v -0.0889 l 0.162983,-0.07408 0.07408,-0.2413 h 0.110067 v 0.26035 h 0.328084 v 0.143934 H 35.37163 v 0.656167 q 0,0.103717 0.04868,0.154517 0.0508,0.04868 0.129117,0.04868 z"
         style="font-size:2.11667px"
         id="path4595" /><path
         d="m 36.372815,11.814175 q 0.143934,0 0.249767,0.0635 0.105834,0.0635 0.160867,0.179917 0.05715,0.1143 0.05715,0.268817 v 0.112183 h -0.776818 q 0.0042,0.192617 0.09737,0.294217 0.09525,0.09948 0.264584,0.09948 0.10795,0 0.1905,-0.01905 0.08467,-0.02117 0.173567,-0.05927 v 0.162984 q -0.08678,0.0381 -0.17145,0.05503 -0.08467,0.01905 -0.201084,0.01905 -0.162984,0 -0.28575,-0.06562 -0.122767,-0.06562 -0.192617,-0.194733 -0.06773,-0.129117 -0.06773,-0.319618 0,-0.186267 0.06138,-0.319617 0.0635,-0.13335 0.175683,-0.205317 0.1143,-0.07197 0.264584,-0.07197 z m -0.0021,0.1524 q -0.13335,0 -0.211667,0.08678 -0.0762,0.08467 -0.09102,0.237067 h 0.57785 q -0.0021,-0.143933 -0.06773,-0.232833 -0.06562,-0.09102 -0.207434,-0.09102 z"
         style="font-size:2.11667px"
         id="path4597" /><path
         d="m 37.530632,12.991043 q -0.211667,0 -0.338668,-0.14605 -0.127,-0.148167 -0.127,-0.440268 0,-0.2921 0.127,-0.440267 0.129117,-0.150283 0.340784,-0.150283 0.131234,0 0.213784,0.04868 0.08467,0.04868 0.137583,0.118533 h 0.0127 q -0.0042,-0.02752 -0.0085,-0.08043 -0.0042,-0.05503 -0.0042,-0.08678 V 11.36121 h 0.186267 v 1.608669 h -0.150283 l -0.02752,-0.1524 h -0.0085 q -0.0508,0.07197 -0.135466,0.122767 -0.08467,0.0508 -0.218017,0.0508 z m 0.02963,-0.154517 q 0.179917,0 0.251884,-0.09737 0.07408,-0.09948 0.07408,-0.29845 v -0.03387 q 0,-0.211667 -0.06985,-0.32385 -0.06985,-0.114301 -0.258234,-0.114301 -0.150283,0 -0.226483,0.120651 -0.07408,0.118533 -0.07408,0.319617 0,0.2032 0.07408,0.315384 0.0762,0.112183 0.2286,0.112183 z"
         style="font-size:2.11667px"
         id="path4599" /></g><g
       aria-label="in progress hover
"
       id="text4022"
       style="font-size:2.82224px;line-height:1.25;fill:#efede7;stroke-width:0.264585"
       transform="translate(3.3015704)"><path
         d="m 22.722417,18.834099 q 0.04233,0 0.07408,0.02963 0.03387,0.02752 0.03387,0.0889 0,0.06138 -0.03387,0.09102 -0.03175,0.02752 -0.07408,0.02752 -0.04657,0 -0.07832,-0.02752 -0.03175,-0.02963 -0.03175,-0.09102 0,-0.06138 0.03175,-0.0889 0.03175,-0.02963 0.07832,-0.02963 z m 0.09102,0.425451 v 1.134535 h -0.18627 V 19.25955 Z"
         style="font-size:2.11667px"
         id="path4602" /><path
         d="m 23.719368,19.238383 q 0.2032,0 0.306917,0.09948 0.103717,0.09948 0.103717,0.3175 v 0.738718 h -0.184151 v -0.726018 q 0,-0.27305 -0.254,-0.27305 -0.188384,0 -0.26035,0.105833 -0.07197,0.105834 -0.07197,0.304801 v 0.588434 H 23.173267 V 19.25955 h 0.150283 l 0.02752,0.154517 h 0.01058 q 0.05503,-0.0889 0.1524,-0.131234 0.09737,-0.04445 0.205318,-0.04445 z"
         style="font-size:2.11667px"
         id="path4604" /><path
         d="m 25.571454,19.238383 q 0.209551,0 0.336551,0.14605 0.129117,0.146051 0.129117,0.440268 0,0.289984 -0.129117,0.440267 -0.127,0.150284 -0.338667,0.150284 -0.131234,0 -0.218017,-0.04868 -0.08467,-0.04868 -0.13335,-0.116417 h -0.0127 q 0.0021,0.03598 0.0064,0.09102 0.0064,0.05503 0.0064,0.09525 v 0.465668 H 25.031704 V 19.25955 h 0.1524 l 0.0254,0.154517 h 0.0085 q 0.0508,-0.07408 0.13335,-0.124884 0.08255,-0.0508 0.220133,-0.0508 z m -0.03387,0.156634 q -0.173567,0 -0.245534,0.09737 -0.07197,0.09737 -0.07408,0.296333 v 0.03598 q 0,0.20955 0.06773,0.32385 0.06985,0.112184 0.256117,0.112184 0.1016,0 0.169334,-0.05503 0.06773,-0.05715 0.09948,-0.156633 0.03387,-0.09948 0.03387,-0.226484 0,-0.194734 -0.0762,-0.31115 -0.07408,-0.116417 -0.230717,-0.116417 z"
         style="font-size:2.11667px"
         id="path4606" /><path
         d="m 26.862623,19.238383 q 0.03175,0 0.06773,0.0042 0.03598,0.0021 0.06562,0.0085 l -0.02328,0.17145 q -0.02752,-0.0064 -0.06138,-0.01058 -0.03387,-0.0042 -0.06138,-0.0042 -0.08678,0 -0.162984,0.04868 -0.0762,0.04657 -0.122767,0.13335 -0.04445,0.08467 -0.04445,0.198967 v 0.605368 H 26.333455 V 19.25955 h 0.1524 l 0.02117,0.207434 h 0.0085 q 0.05292,-0.09313 0.1397,-0.160867 0.0889,-0.06773 0.207434,-0.06773 z"
         style="font-size:2.11667px"
         id="path4608" /><path
         d="m 28.151674,19.824701 q 0,0.281517 -0.143934,0.436034 -0.141817,0.154517 -0.385234,0.154517 -0.150283,0 -0.268817,-0.06773 -0.116417,-0.06985 -0.18415,-0.201083 -0.06773,-0.133351 -0.06773,-0.321734 0,-0.281517 0.1397,-0.433918 0.141817,-0.1524 0.38735,-0.1524 0.152401,0 0.270934,0.06985 0.118534,0.06773 0.18415,0.198967 0.06773,0.129117 0.06773,0.317501 z m -0.857251,0 q 0,0.201083 0.07832,0.319617 0.08043,0.116417 0.254001,0.116417 0.17145,0 0.251883,-0.116417 0.08043,-0.118534 0.08043,-0.319617 0,-0.201084 -0.08043,-0.315384 -0.08043,-0.1143 -0.254,-0.1143 -0.173567,0 -0.251884,0.1143 -0.07832,0.1143 -0.07832,0.315384 z"
         style="font-size:2.11667px"
         id="path4610" /><path
         d="m 28.848057,19.238383 q 0.112184,0 0.201084,0.04233 0.09102,0.04233 0.154517,0.129116 h 0.01058 l 0.0254,-0.150283 h 0.148167 v 1.153585 q 0,0.243417 -0.124883,0.366184 -0.122767,0.122767 -0.383118,0.122767 -0.249767,0 -0.408517,-0.07197 v -0.17145 q 0.167217,0.0889 0.419101,0.0889 0.14605,0 0.2286,-0.08678 0.08467,-0.08467 0.08467,-0.232833 v -0.04445 q 0,-0.0254 0.0021,-0.07197 0.0021,-0.04868 0.0042,-0.06773 h -0.0085 q -0.1143,0.171451 -0.351367,0.171451 -0.220134,0 -0.345017,-0.154517 -0.122767,-0.154517 -0.122767,-0.431801 0,-0.270934 0.122767,-0.429684 0.124883,-0.160867 0.3429,-0.160867 z m 0.0254,0.156634 q -0.141817,0 -0.220133,0.1143 -0.07832,0.112183 -0.07832,0.321734 0,0.20955 0.0762,0.321734 0.0762,0.110066 0.226484,0.110066 0.17145,0 0.249767,-0.09102 0.07832,-0.09313 0.07832,-0.298451 v -0.04445 q 0,-0.230717 -0.08043,-0.332317 -0.08043,-0.1016 -0.251884,-0.1016 z"
         style="font-size:2.11667px"
         id="path4612" /><path
         d="m 30.276809,19.238383 q 0.03175,0 0.06773,0.0042 0.03598,0.0021 0.06562,0.0085 l -0.02328,0.17145 q -0.02752,-0.0064 -0.06138,-0.01058 -0.03387,-0.0042 -0.06138,-0.0042 -0.08678,0 -0.162984,0.04868 -0.0762,0.04657 -0.122767,0.13335 -0.04445,0.08467 -0.04445,0.198967 v 0.605368 H 29.747641 V 19.25955 h 0.1524 l 0.02117,0.207434 h 0.0085 q 0.05292,-0.09313 0.1397,-0.160867 0.0889,-0.06773 0.207434,-0.06773 z"
         style="font-size:2.11667px"
         id="path4614" /><path
         d="m 31.017643,19.238383 q 0.143933,0 0.249767,0.0635 0.105833,0.0635 0.160867,0.179917 0.05715,0.1143 0.05715,0.268817 v 0.112184 h -0.776818 q 0.0042,0.192617 0.09737,0.294217 0.09525,0.09948 0.264584,0.09948 0.10795,0 0.1905,-0.01905 0.08467,-0.02117 0.173567,-0.05927 v 0.162983 q -0.08678,0.0381 -0.17145,0.05503 -0.08467,0.01905 -0.201084,0.01905 -0.162984,0 -0.285751,-0.06562 -0.122766,-0.06562 -0.192616,-0.194734 -0.06773,-0.129117 -0.06773,-0.319617 0,-0.186267 0.06138,-0.319617 0.0635,-0.13335 0.175683,-0.205317 0.1143,-0.07197 0.264584,-0.07197 z m -0.0021,0.1524 q -0.13335,0 -0.211667,0.08678 -0.0762,0.08467 -0.09102,0.237067 h 0.577851 q -0.0021,-0.143934 -0.06773,-0.232834 -0.06562,-0.09102 -0.207434,-0.09102 z"
         style="font-size:2.11667px"
         id="path4616" /><path
         d="m 32.51201,20.080818 q 0,0.1651 -0.122767,0.249767 -0.122767,0.08467 -0.3302,0.08467 -0.118534,0 -0.205317,-0.01905 -0.08467,-0.01905 -0.150284,-0.05292 v -0.169334 q 0.06773,0.03387 0.162984,0.0635 0.09737,0.02752 0.19685,0.02752 0.141817,0 0.205317,-0.04445 0.0635,-0.04657 0.0635,-0.122767 0,-0.04233 -0.02328,-0.0762 -0.02328,-0.03387 -0.08467,-0.06773 -0.05927,-0.03387 -0.17145,-0.0762 -0.110067,-0.04233 -0.188384,-0.08467 -0.07832,-0.04233 -0.12065,-0.1016 -0.04233,-0.05927 -0.04233,-0.152401 0,-0.143933 0.116417,-0.22225 0.118534,-0.07832 0.309034,-0.07832 0.103717,0 0.192617,0.02117 0.09102,0.02117 0.169334,0.05503 l -0.0635,0.148167 q -0.07197,-0.02963 -0.150283,-0.0508 -0.07832,-0.02117 -0.160867,-0.02117 -0.1143,0 -0.175684,0.0381 -0.05927,0.03598 -0.05927,0.09948 0,0.04868 0.02752,0.08043 0.02752,0.03175 0.09102,0.0635 0.06562,0.03175 0.173567,0.07197 0.10795,0.04022 0.18415,0.08255 0.0762,0.04233 0.116417,0.103717 0.04022,0.05927 0.04022,0.150284 z"
         style="font-size:2.11667px"
         id="path4618" /><path
         d="m 33.525894,20.080818 q 0,0.1651 -0.122766,0.249767 -0.122767,0.08467 -0.330201,0.08467 -0.118533,0 -0.205317,-0.01905 -0.08467,-0.01905 -0.150283,-0.05292 v -0.169334 q 0.06773,0.03387 0.162983,0.0635 0.09737,0.02752 0.19685,0.02752 0.141817,0 0.205317,-0.04445 0.0635,-0.04657 0.0635,-0.122767 0,-0.04233 -0.02328,-0.0762 -0.02328,-0.03387 -0.08467,-0.06773 -0.05927,-0.03387 -0.17145,-0.0762 -0.110067,-0.04233 -0.188384,-0.08467 -0.07832,-0.04233 -0.12065,-0.1016 -0.04233,-0.05927 -0.04233,-0.152401 0,-0.143933 0.116417,-0.22225 0.118533,-0.07832 0.309034,-0.07832 0.103716,0 0.192617,0.02117 0.09102,0.02117 0.169333,0.05503 l -0.0635,0.148167 q -0.07197,-0.02963 -0.150284,-0.0508 -0.07832,-0.02117 -0.160866,-0.02117 -0.114301,0 -0.175684,0.0381 -0.05927,0.03598 -0.05927,0.09948 0,0.04868 0.02752,0.08043 0.02752,0.03175 0.09102,0.0635 0.06562,0.03175 0.173567,0.07197 0.10795,0.04022 0.18415,0.08255 0.0762,0.04233 0.116417,0.103717 0.04022,0.05927 0.04022,0.150284 z"
         style="font-size:2.11667px"
         id="path4620" /><path
         d="m 34.537664,18.785416 v 0.472017 q 0,0.08467 -0.01058,0.15875 h 0.0127 q 0.05503,-0.08678 0.148167,-0.131233 0.09525,-0.04445 0.205317,-0.04445 0.205317,0 0.309033,0.09948 0.105834,0.09737 0.105834,0.315384 v 0.738718 h -0.18415 v -0.726018 q 0,-0.27305 -0.254001,-0.27305 -0.1905,0 -0.262467,0.10795 -0.06985,0.105833 -0.06985,0.3048 v 0.586318 H 34.3514 v -1.608669 z"
         style="font-size:2.11667px"
         id="path4622" /><path
         d="m 36.645867,19.824701 q 0,0.281517 -0.143934,0.436034 -0.141816,0.154517 -0.385234,0.154517 -0.150283,0 -0.268817,-0.06773 -0.116416,-0.06985 -0.18415,-0.201083 -0.06773,-0.133351 -0.06773,-0.321734 0,-0.281517 0.1397,-0.433918 0.141817,-0.1524 0.38735,-0.1524 0.152401,0 0.270934,0.06985 0.118534,0.06773 0.184151,0.198967 0.06773,0.129117 0.06773,0.317501 z m -0.857251,0 q 0,0.201083 0.07832,0.319617 0.08043,0.116417 0.254001,0.116417 0.17145,0 0.251884,-0.116417 0.08043,-0.118534 0.08043,-0.319617 0,-0.201084 -0.08043,-0.315384 -0.08043,-0.1143 -0.254001,-0.1143 -0.173567,0 -0.251884,0.1143 -0.07832,0.1143 -0.07832,0.315384 z"
         style="font-size:2.11667px"
         id="path4624" /><path
         d="M 37.147516,20.394085 36.717832,19.25955 h 0.198967 l 0.2413,0.668868 q 0.01693,0.04657 0.03598,0.103716 0.01905,0.05715 0.03387,0.110067 0.01482,0.05292 0.02117,0.08678 h 0.0085 q 0.0063,-0.03387 0.02328,-0.08678 0.01693,-0.05503 0.03598,-0.110067 0.01905,-0.05715 0.03598,-0.103716 l 0.2413,-0.668868 H 37.7931 l -0.431801,1.134535 z"
         style="font-size:2.11667px"
         id="path4626" /><path
         d="m 38.411166,19.238383 q 0.143934,0 0.249767,0.0635 0.105834,0.0635 0.160867,0.179917 0.05715,0.1143 0.05715,0.268817 v 0.112184 h -0.776818 q 0.0042,0.192617 0.09737,0.294217 0.09525,0.09948 0.264584,0.09948 0.10795,0 0.1905,-0.01905 0.08467,-0.02117 0.173567,-0.05927 v 0.162983 q -0.08678,0.0381 -0.17145,0.05503 -0.08467,0.01905 -0.201084,0.01905 -0.162983,0 -0.28575,-0.06562 -0.122767,-0.06562 -0.192617,-0.194734 -0.06773,-0.129117 -0.06773,-0.319617 0,-0.186267 0.06138,-0.319617 0.0635,-0.13335 0.175683,-0.205317 0.1143,-0.07197 0.264584,-0.07197 z m -0.0021,0.1524 q -0.13335,0 -0.211667,0.08678 -0.0762,0.08467 -0.09102,0.237067 h 0.57785 q -0.0021,-0.14393 -0.06775,-0.23283 -0.06562,-0.09102 -0.207434,-0.09102 z"
         style="font-size:2.11667px"
         id="path4628" /><path
         d="m 39.695983,19.238383 q 0.03175,0 0.06773,0.0042 0.03598,0.0021 0.06562,0.0085 l -0.02328,0.17145 q -0.02752,-0.0064 -0.06138,-0.01058 -0.03387,-0.0042 -0.06138,-0.0042 -0.08678,0 -0.162984,0.04868 -0.0762,0.04657 -0.122767,0.13335 -0.04445,0.08467 -0.04445,0.198967 v 0.605368 H 39.166815 V 19.25955 h 0.152401 l 0.02117,0.207434 h 0.0085 q 0.05292,-0.09313 0.1397,-0.160867 0.0889,-0.06773 0.207434,-0.06773 z"
         style="font-size:2.11667px"
         id="path4630" /></g><g
       aria-label="in progress selected
"
       id="text4030"
       style="font-size:2.82224px;line-height:1.25;fill:#efede7;stroke-width:0.264585"
       transform="translate(2.1088279)"><path
         d="m 22.722417,26.507016 q 0.04233,0 0.07408,0.02963 0.03387,0.02752 0.03387,0.0889 0,0.06138 -0.03387,0.09102 -0.03175,0.02752 -0.07408,0.02752 -0.04657,0 -0.07832,-0.02752 -0.03175,-0.02963 -0.03175,-0.09102 0,-0.06138 0.03175,-0.0889 0.03175,-0.02963 0.07832,-0.02963 z m 0.09102,0.42545 v 1.134535 H 22.62717 v -1.134535 z"
         style="font-size:2.11667px"
         id="path4633" /><path
         d="m 23.719368,26.9113 q 0.2032,0 0.306917,0.09948 0.103717,0.09948 0.103717,0.317501 v 0.738717 h -0.184151 v -0.726017 q 0,-0.273051 -0.254,-0.273051 -0.188384,0 -0.26035,0.105834 -0.07197,0.105833 -0.07197,0.3048 v 0.588434 h -0.186267 v -1.134535 h 0.150283 l 0.02752,0.154517 h 0.01058 q 0.05503,-0.0889 0.1524,-0.131233 0.09737,-0.04445 0.205317,-0.04445 z"
         style="font-size:2.11667px"
         id="path4635" /><path
         d="m 25.571454,26.9113 q 0.209551,0 0.336551,0.14605 0.129117,0.14605 0.129117,0.440267 0,0.289984 -0.129117,0.440267 -0.127,0.150284 -0.338667,0.150284 -0.131234,0 -0.218017,-0.04868 -0.08467,-0.04868 -0.13335,-0.116417 h -0.0127 q 0.0021,0.03598 0.0064,0.09102 0.0064,0.05503 0.0064,0.09525 v 0.465667 h -0.186267 v -1.642536 h 0.1524 l 0.0254,0.154517 h 0.0085 q 0.0508,-0.07408 0.13335,-0.124883 0.08255,-0.0508 0.220133,-0.0508 z m -0.03387,0.156633 q -0.173567,0 -0.245534,0.09737 -0.07197,0.09737 -0.07408,0.296334 v 0.03598 q 0,0.20955 0.06773,0.323851 0.06985,0.112183 0.256117,0.112183 0.1016,0 0.169334,-0.05503 0.06773,-0.05715 0.09948,-0.156634 0.03387,-0.09948 0.03387,-0.226484 0,-0.194733 -0.0762,-0.31115 -0.07408,-0.116417 -0.230717,-0.116417 z"
         style="font-size:2.11667px"
         id="path4637" /><path
         d="m 26.862623,26.9113 q 0.03175,0 0.06773,0.0042 0.03598,0.0021 0.06562,0.0085 l -0.02328,0.17145 q -0.02752,-0.0064 -0.06138,-0.01058 -0.03387,-0.0042 -0.06138,-0.0042 -0.08678,0 -0.162984,0.04868 -0.0762,0.04657 -0.122767,0.13335 -0.04445,0.08467 -0.04445,0.198967 v 0.605367 h -0.186267 v -1.134535 h 0.1524 l 0.02117,0.207434 h 0.0085 q 0.05292,-0.09313 0.1397,-0.160867 0.0889,-0.06773 0.207434,-0.06773 z"
         style="font-size:2.11667px"
         id="path4639" /><path
         d="m 28.151674,27.497617 q 0,0.281517 -0.143934,0.436034 -0.141817,0.154517 -0.385234,0.154517 -0.150283,0 -0.268817,-0.06773 -0.116417,-0.06985 -0.18415,-0.201084 -0.06773,-0.13335 -0.06773,-0.321734 0,-0.281517 0.1397,-0.433917 0.141817,-0.1524 0.38735,-0.1524 0.152401,0 0.270934,0.06985 0.118534,0.06773 0.18415,0.198967 0.06773,0.129117 0.06773,0.3175 z m -0.857251,0 q 0,0.201084 0.07832,0.319617 0.08043,0.116417 0.254001,0.116417 0.17145,0 0.251883,-0.116417 0.08043,-0.118533 0.08043,-0.319617 0,-0.201083 -0.08043,-0.315384 -0.08043,-0.1143 -0.254,-0.1143 -0.173567,0 -0.251884,0.1143 -0.07832,0.114301 -0.07832,0.315384 z"
         style="font-size:2.11667px"
         id="path4641" /><path
         d="m 28.848057,26.9113 q 0.112184,0 0.201084,0.04233 0.09102,0.04233 0.154517,0.129117 h 0.01058 l 0.0254,-0.150284 h 0.148167 v 1.153585 q 0,0.243417 -0.124883,0.366184 -0.122767,0.122767 -0.383118,0.122767 -0.249767,0 -0.408517,-0.07197 v -0.17145 q 0.167217,0.0889 0.419101,0.0889 0.14605,0 0.2286,-0.08678 0.08467,-0.08467 0.08467,-0.232834 v -0.04445 q 0,-0.0254 0.0021,-0.07197 0.0021,-0.04868 0.0042,-0.06773 h -0.0085 q -0.1143,0.17145 -0.351367,0.17145 -0.220134,0 -0.345017,-0.154517 -0.122767,-0.154517 -0.122767,-0.431801 0,-0.270933 0.122767,-0.429684 0.124883,-0.160866 0.3429,-0.160866 z m 0.0254,0.156633 q -0.141817,0 -0.220133,0.1143 -0.07832,0.112184 -0.07832,0.321734 0,0.20955 0.0762,0.321734 0.0762,0.110067 0.226484,0.110067 0.17145,0 0.249767,-0.09102 0.07832,-0.09313 0.07832,-0.29845 v -0.04445 q 0,-0.230717 -0.08043,-0.332317 -0.08043,-0.1016 -0.251884,-0.1016 z"
         style="font-size:2.11667px"
         id="path4643" /><path
         d="m 30.276809,26.9113 q 0.03175,0 0.06773,0.0042 0.03598,0.0021 0.06562,0.0085 l -0.02328,0.17145 q -0.02752,-0.0064 -0.06138,-0.01058 -0.03387,-0.0042 -0.06138,-0.0042 -0.08678,0 -0.162984,0.04868 -0.0762,0.04657 -0.122767,0.13335 -0.04445,0.08467 -0.04445,0.198967 v 0.605367 h -0.186267 v -1.134535 h 0.1524 l 0.02117,0.207434 h 0.0085 q 0.05292,-0.09313 0.1397,-0.160867 0.0889,-0.06773 0.207434,-0.06773 z"
         style="font-size:2.11667px"
         id="path4645" /><path
         d="m 31.017643,26.9113 q 0.143933,0 0.249767,0.0635 0.105833,0.0635 0.160867,0.179917 0.05715,0.1143 0.05715,0.268817 v 0.112183 h -0.776818 q 0.0042,0.192617 0.09737,0.294217 0.09525,0.09948 0.264584,0.09948 0.10795,0 0.1905,-0.01905 0.08467,-0.02117 0.173567,-0.05927 v 0.162984 q -0.08678,0.0381 -0.17145,0.05503 -0.08467,0.01905 -0.201084,0.01905 -0.162984,0 -0.285751,-0.06562 -0.122766,-0.06562 -0.192616,-0.194733 -0.06773,-0.129117 -0.06773,-0.319618 0,-0.186266 0.06138,-0.319617 0.0635,-0.13335 0.175683,-0.205317 0.1143,-0.07197 0.264584,-0.07197 z m -0.0021,0.1524 q -0.13335,0 -0.211667,0.08678 -0.0762,0.08467 -0.09102,0.237067 h 0.577851 q -0.0021,-0.143933 -0.06773,-0.232833 -0.06562,-0.09102 -0.207434,-0.09102 z"
         style="font-size:2.11667px"
         id="path4647" /><path
         d="m 32.51201,27.753734 q 0,0.1651 -0.122767,0.249767 -0.122767,0.08467 -0.3302,0.08467 -0.118534,0 -0.205317,-0.01905 -0.08467,-0.01905 -0.150284,-0.05292 v -0.169333 q 0.06773,0.03387 0.162984,0.0635 0.09737,0.02752 0.19685,0.02752 0.141817,0 0.205317,-0.04445 0.0635,-0.04657 0.0635,-0.122766 0,-0.04233 -0.02328,-0.0762 -0.02328,-0.03387 -0.08467,-0.06773 -0.05927,-0.03387 -0.17145,-0.0762 -0.110067,-0.04233 -0.188384,-0.08467 -0.07832,-0.04233 -0.12065,-0.1016 -0.04233,-0.05927 -0.04233,-0.1524 0,-0.143934 0.116417,-0.222251 0.118534,-0.07832 0.309034,-0.07832 0.103717,0 0.192617,0.02117 0.09102,0.02117 0.169334,0.05503 l -0.0635,0.148167 q -0.07197,-0.02963 -0.150283,-0.0508 -0.07832,-0.02117 -0.160867,-0.02117 -0.1143,0 -0.175684,0.0381 -0.05927,0.03598 -0.05927,0.09948 0,0.04868 0.02752,0.08043 0.02752,0.03175 0.09102,0.0635 0.06562,0.03175 0.173567,0.07197 0.10795,0.04022 0.18415,0.08255 0.0762,0.04233 0.116417,0.103717 0.04022,0.05927 0.04022,0.150283 z"
         style="font-size:2.11667px"
         id="path4649" /><path
         d="m 33.525894,27.753734 q 0,0.1651 -0.122766,0.249767 -0.122767,0.08467 -0.330201,0.08467 -0.118533,0 -0.205317,-0.01905 -0.08467,-0.01905 -0.150283,-0.05292 v -0.169333 q 0.06773,0.03387 0.162983,0.0635 0.09737,0.02752 0.19685,0.02752 0.141817,0 0.205317,-0.04445 0.0635,-0.04657 0.0635,-0.122766 0,-0.04233 -0.02328,-0.0762 -0.02328,-0.03387 -0.08467,-0.06773 -0.05927,-0.03387 -0.17145,-0.0762 -0.110067,-0.04233 -0.188384,-0.08467 -0.07832,-0.04233 -0.12065,-0.1016 -0.04233,-0.05927 -0.04233,-0.1524 0,-0.143934 0.116417,-0.222251 0.118533,-0.07832 0.309034,-0.07832 0.103716,0 0.192617,0.02117 0.09102,0.02117 0.169333,0.05503 l -0.0635,0.148167 q -0.07197,-0.02963 -0.150284,-0.0508 -0.07832,-0.02117 -0.160866,-0.02117 -0.114301,0 -0.175684,0.0381 -0.05927,0.03598 -0.05927,0.09948 0,0.04868 0.02752,0.08043 0.02752,0.03175 0.09102,0.0635 0.06562,0.03175 0.173567,0.07197 0.10795,0.04022 0.18415,0.08255 0.0762,0.04233 0.116417,0.103717 0.04022,0.05927 0.04022,0.150283 z"
         style="font-size:2.11667px"
         id="path4651" /><path
         d="m 35.090115,27.753734 q 0,0.1651 -0.122767,0.249767 -0.122767,0.08467 -0.3302,0.08467 -0.118534,0 -0.205317,-0.01905 -0.08467,-0.01905 -0.150284,-0.05292 v -0.169333 q 0.06773,0.03387 0.162984,0.0635 0.09737,0.02752 0.19685,0.02752 0.141817,0 0.205317,-0.04445 0.0635,-0.04657 0.0635,-0.122766 0,-0.04233 -0.02328,-0.0762 -0.02328,-0.03387 -0.08467,-0.06773 -0.05927,-0.03387 -0.17145,-0.0762 -0.110067,-0.04233 -0.188384,-0.08467 -0.07832,-0.04233 -0.12065,-0.1016 -0.04233,-0.05927 -0.04233,-0.1524 0,-0.143934 0.116417,-0.222251 0.118534,-0.07832 0.309034,-0.07832 0.103717,0 0.192617,0.02117 0.09102,0.02117 0.169334,0.05503 l -0.0635,0.148167 q -0.07197,-0.02963 -0.150283,-0.0508 -0.07832,-0.02117 -0.160867,-0.02117 -0.1143,0 -0.175684,0.0381 -0.05927,0.03598 -0.05927,0.09948 0,0.04868 0.02752,0.08043 0.02752,0.03175 0.09102,0.0635 0.06562,0.03175 0.173567,0.07197 0.10795,0.04022 0.18415,0.08255 0.0762,0.04233 0.116417,0.103717 0.04022,0.05927 0.04022,0.150283 z"
         style="font-size:2.11667px"
         id="path4653" /><path
         d="m 35.803432,26.9113 q 0.143934,0 0.249767,0.0635 0.105834,0.0635 0.160867,0.179917 0.05715,0.1143 0.05715,0.268817 v 0.112183 h -0.776817 q 0.0042,0.192617 0.09737,0.294217 0.09525,0.09948 0.264584,0.09948 0.10795,0 0.1905,-0.01905 0.08467,-0.02117 0.173567,-0.05927 v 0.162984 q -0.08678,0.0381 -0.17145,0.05503 -0.08467,0.01905 -0.201084,0.01905 -0.162983,0 -0.28575,-0.06562 -0.122767,-0.06562 -0.192617,-0.194733 -0.06773,-0.129117 -0.06773,-0.319618 0,-0.186266 0.06138,-0.319617 0.0635,-0.13335 0.175684,-0.205317 0.1143,-0.07197 0.264583,-0.07197 z m -0.0021,0.1524 q -0.133351,0 -0.211667,0.08678 -0.0762,0.08467 -0.09102,0.237067 h 0.577851 q -0.0021,-0.143933 -0.06773,-0.232833 -0.06562,-0.09102 -0.207433,-0.09102 z"
         style="font-size:2.11667px"
         id="path4655" /><path
         d="m 36.745349,28.067001 h -0.186267 v -1.608669 h 0.186267 z"
         style="font-size:2.11667px"
         id="path4657" /><path
         d="m 37.543332,26.9113 q 0.143934,0 0.249767,0.0635 0.105834,0.0635 0.160867,0.179917 0.05715,0.1143 0.05715,0.268817 v 0.112183 h -0.776818 q 0.0042,0.192617 0.09737,0.294217 0.09525,0.09948 0.264584,0.09948 0.10795,0 0.1905,-0.01905 0.08467,-0.02117 0.173567,-0.05927 v 0.162984 q -0.08678,0.0381 -0.17145,0.05503 -0.08467,0.01905 -0.201084,0.01905 -0.162984,0 -0.28575,-0.06562 -0.122767,-0.06562 -0.192617,-0.194733 -0.06773,-0.129117 -0.06773,-0.319618 0,-0.186266 0.06138,-0.319617 0.0635,-0.13335 0.175683,-0.205317 0.1143,-0.07197 0.264584,-0.07197 z m -0.0021,0.1524 q -0.13335,0 -0.211667,0.08678 -0.0762,0.08467 -0.09102,0.237067 h 0.57785 q -0.0021,-0.143933 -0.06773,-0.232833 -0.06562,-0.09102 -0.207434,-0.09102 z"
         style="font-size:2.11667px"
         id="path4659" /><path
         d="m 38.754065,28.088168 q -0.1524,0 -0.268817,-0.06138 -0.116417,-0.06138 -0.18415,-0.190501 -0.06562,-0.129117 -0.06562,-0.3302 0,-0.20955 0.06773,-0.340784 0.06985,-0.131234 0.1905,-0.192617 0.12065,-0.06138 0.27305,-0.06138 0.08467,0 0.165101,0.01905 0.08255,0.01693 0.13335,0.04233 l -0.05715,0.154517 q -0.0508,-0.01905 -0.118534,-0.03598 -0.06773,-0.01693 -0.127,-0.01693 -0.334434,0 -0.334434,0.429684 0,0.205317 0.08043,0.315384 0.08255,0.10795 0.243417,0.10795 0.09102,0 0.162983,-0.01905 0.07197,-0.01905 0.131234,-0.04657 v 0.165101 q -0.05715,0.02963 -0.127,0.04445 -0.06773,0.01693 -0.165101,0.01693 z"
         style="font-size:2.11667px"
         id="path4661" /><path
         d="m 39.693866,27.935768 q 0.04233,0 0.08678,-0.0064 0.04445,-0.0063 0.07197,-0.01693 v 0.141817 q -0.02963,0.01482 -0.08467,0.02328 -0.05503,0.01058 -0.105833,0.01058 -0.0889,0 -0.1651,-0.02963 -0.07408,-0.03175 -0.120651,-0.107951 -0.04657,-0.0762 -0.04657,-0.213783 V 27.0764 h -0.160867 v -0.0889 l 0.162983,-0.07408 0.07408,-0.2413 h 0.110067 v 0.26035 h 0.328083 v 0.14393 h -0.328083 v 0.656167 q 0,0.103717 0.04868,0.154517 0.0508,0.04868 0.129117,0.04868 z"
         style="font-size:2.11667px"
         id="path4663" /><path
         d="m 40.517251,26.9113 q 0.143933,0 0.249767,0.0635 0.105833,0.0635 0.160867,0.179917 0.05715,0.1143 0.05715,0.268817 v 0.112183 h -0.776818 q 0.0042,0.192617 0.09737,0.294217 0.09525,0.09948 0.264584,0.09948 0.10795,0 0.1905,-0.01905 0.08467,-0.02117 0.173567,-0.05927 v 0.162984 q -0.08678,0.0381 -0.17145,0.05503 -0.08467,0.01905 -0.201084,0.01905 -0.162984,0 -0.28575,-0.06562 -0.122767,-0.06562 -0.192617,-0.194733 -0.06773,-0.129117 -0.06773,-0.319618 0,-0.186266 0.06138,-0.319617 0.0635,-0.13335 0.175683,-0.205317 0.1143,-0.07197 0.264584,-0.07197 z m -0.0021,0.1524 q -0.13335,0 -0.211667,0.08678 -0.0762,0.08467 -0.09102,0.237067 h 0.577851 q -0.0021,-0.143933 -0.06773,-0.232833 -0.06562,-0.09102 -0.207434,-0.09102 z"
         style="font-size:2.11667px"
         id="path4665" /><path
         d="m 41.675067,28.088168 q -0.211667,0 -0.338667,-0.14605 -0.127,-0.148167 -0.127,-0.440268 0,-0.2921 0.127,-0.440267 0.129117,-0.150283 0.340784,-0.150283 0.131234,0 0.213784,0.04868 0.08467,0.04868 0.137583,0.118534 h 0.0127 q -0.0042,-0.02752 -0.0085,-0.08043 -0.0042,-0.05503 -0.0042,-0.08678 v -0.452968 h 0.186267 v 1.608669 h -0.150283 l -0.02752,-0.1524 h -0.0085 q -0.0508,0.07197 -0.135467,0.122767 -0.08467,0.0508 -0.218017,0.0508 z m 0.02963,-0.154517 q 0.179917,0 0.251884,-0.09737 0.07408,-0.09948 0.07408,-0.29845 v -0.03387 q 0,-0.211667 -0.06985,-0.32385 -0.06985,-0.114301 -0.258234,-0.114301 -0.150283,0 -0.226484,0.120651 -0.07408,0.118533 -0.07408,0.319617 0,0.2032 0.07408,0.315384 0.0762,0.112183 0.228601,0.112183 z"
         style="font-size:2.11667px"
         id="path4667" /></g><g
       aria-label="finished hover
"
       id="text4038"
       style="font-size:2.82224px;line-height:1.25;fill:#efede7;stroke-width:0.264585"
       transform="translate(4.9822044)"><path
         d="m 23.149985,34.998027 h -0.285751 v 0.990601 H 22.677967 V 34.998027 H 22.479 v -0.08678 l 0.198967,-0.0635 v -0.06562 q 0,-0.220134 0.09525,-0.315384 0.09737,-0.09737 0.27305,-0.09737 0.06562,0 0.122767,0.0127 0.05715,0.01058 0.09737,0.0254 l -0.04868,0.14605 q -0.03387,-0.01058 -0.07832,-0.02117 -0.04445,-0.01058 -0.09102,-0.01058 -0.09313,0 -0.139701,0.0635 -0.04445,0.06138 -0.04445,0.194734 v 0.07408 h 0.285751 z"
         style="font-size:2.11667px"
         id="path4670" /><path
         d="m 23.450552,34.428643 q 0.04233,0 0.07408,0.02963 0.03387,0.02752 0.03387,0.0889 0,0.06138 -0.03387,0.09102 -0.03175,0.02752 -0.07408,0.02752 -0.04657,0 -0.07832,-0.02752 -0.03175,-0.02963 -0.03175,-0.09102 0,-0.06138 0.03175,-0.0889 0.03175,-0.02963 0.07832,-0.02963 z m 0.09102,0.42545 v 1.134535 h -0.186267 v -1.134535 z"
         style="font-size:2.11667px"
         id="path4672" /><path
         d="m 24.447502,34.832927 q 0.2032,0 0.306917,0.09948 0.103717,0.09948 0.103717,0.317501 v 0.738717 h -0.18415 v -0.726017 q 0,-0.273051 -0.254001,-0.273051 -0.188383,0 -0.26035,0.105834 -0.07197,0.105833 -0.07197,0.3048 v 0.588434 H 23.901398 V 34.85409 h 0.150284 l 0.02752,0.154517 h 0.01058 q 0.05503,-0.0889 0.1524,-0.131233 0.09737,-0.04445 0.205317,-0.04445 z"
         style="font-size:2.11667px"
         id="path4674" /><path
         d="m 25.304753,34.428643 q 0.04233,0 0.07408,0.02963 0.03387,0.02752 0.03387,0.0889 0,0.06138 -0.03387,0.09102 -0.03175,0.02752 -0.07408,0.02752 -0.04657,0 -0.07832,-0.02752 -0.03175,-0.02963 -0.03175,-0.09102 0,-0.06138 0.03175,-0.0889 0.03175,-0.02963 0.07832,-0.02963 z m 0.09102,0.42545 v 1.134535 h -0.186267 v -1.134535 z"
         style="font-size:2.11667px"
         id="path4676" /><path
         d="m 26.49432,35.675361 q 0,0.1651 -0.122766,0.249767 -0.122767,0.08467 -0.330201,0.08467 -0.118533,0 -0.205317,-0.01905 -0.08467,-0.01905 -0.150283,-0.05292 v -0.169333 q 0.06773,0.03387 0.162983,0.0635 0.09737,0.02752 0.19685,0.02752 0.141817,0 0.205317,-0.04445 0.0635,-0.04657 0.0635,-0.122766 0,-0.04233 -0.02328,-0.0762 -0.02328,-0.03387 -0.08467,-0.06773 -0.05927,-0.03387 -0.17145,-0.0762 -0.110067,-0.04233 -0.188384,-0.08467 -0.07832,-0.04233 -0.12065,-0.1016 -0.04233,-0.05927 -0.04233,-0.1524 0,-0.143934 0.116417,-0.222251 0.118533,-0.07832 0.309034,-0.07832 0.103716,0 0.192617,0.02117 0.09102,0.02117 0.169333,0.05503 l -0.0635,0.148167 q -0.07197,-0.02963 -0.150284,-0.0508 -0.07832,-0.02117 -0.160866,-0.02117 -0.114301,0 -0.175684,0.0381 -0.05927,0.03598 -0.05927,0.09948 0,0.04868 0.02752,0.08043 0.02752,0.03175 0.09102,0.0635 0.06562,0.03175 0.173567,0.07197 0.10795,0.04022 0.18415,0.08255 0.0762,0.04233 0.116417,0.103717 0.04022,0.05927 0.04022,0.150283 z"
         style="font-size:2.11667px"
         id="path4678" /><path
         d="m 26.955755,34.379959 v 0.472018 q 0,0.08467 -0.01058,0.15875 h 0.0127 q 0.05503,-0.08678 0.148166,-0.131234 0.09525,-0.04445 0.205317,-0.04445 0.205317,0 0.309034,0.09948 0.105834,0.09737 0.105834,0.315384 v 0.738717 h -0.184151 v -0.726017 q 0,-0.273051 -0.254,-0.273051 -0.1905,0 -0.262467,0.10795 -0.06985,0.105834 -0.06985,0.304801 v 0.586317 h -0.186267 v -1.608669 z"
         style="font-size:2.11667px"
         id="path4680" /><path
         d="m 28.51574,34.832927 q 0.143934,0 0.249767,0.0635 0.105834,0.0635 0.160867,0.179917 0.05715,0.1143 0.05715,0.268817 v 0.112183 h -0.776818 q 0.0042,0.192617 0.09737,0.294217 0.09525,0.09948 0.264584,0.09948 0.10795,0 0.1905,-0.01905 0.08467,-0.02117 0.173567,-0.05927 v 0.162984 q -0.08678,0.0381 -0.17145,0.05503 -0.08467,0.01905 -0.201084,0.01905 -0.162983,0 -0.28575,-0.06562 -0.122767,-0.06562 -0.192617,-0.194733 -0.06773,-0.129117 -0.06773,-0.319617 0,-0.186267 0.06138,-0.319618 0.0635,-0.13335 0.175684,-0.205317 0.1143,-0.07197 0.264583,-0.07197 z m -0.0021,0.1524 q -0.133351,0 -0.211667,0.08678 -0.0762,0.08467 -0.09102,0.237067 h 0.577851 q -0.0021,-0.143933 -0.06773,-0.232833 -0.06562,-0.09102 -0.207433,-0.09102 z"
         style="font-size:2.11667px"
         id="path4682" /><path
         d="m 29.673557,36.009795 q -0.211667,0 -0.338667,-0.14605 -0.127001,-0.148167 -0.127001,-0.440267 0,-0.292101 0.127001,-0.440268 0.129117,-0.150283 0.340784,-0.150283 0.131233,0 0.213783,0.04868 0.08467,0.04868 0.137584,0.118534 h 0.0127 q -0.0042,-0.02752 -0.0085,-0.08043 -0.0042,-0.05503 -0.0042,-0.08678 v -0.452968 h 0.186267 v 1.608669 h -0.150284 l -0.02752,-0.1524 h -0.0085 q -0.0508,0.07197 -0.135467,0.122767 -0.08467,0.0508 -0.218017,0.0508 z m 0.02963,-0.154517 q 0.179917,0 0.251884,-0.09737 0.07408,-0.09948 0.07408,-0.29845 v -0.03387 q 0,-0.211667 -0.06985,-0.32385 -0.06985,-0.1143 -0.258233,-0.1143 -0.150284,0 -0.226484,0.12065 -0.07408,0.118533 -0.07408,0.319617 0,0.2032 0.07408,0.315384 0.0762,0.112183 0.2286,0.112183 z"
         style="font-size:2.11667px"
         id="path4684" /><path
         d="m 31.309743,34.379959 v 0.472018 q 0,0.08467 -0.01058,0.15875 h 0.0127 q 0.05503,-0.08678 0.148167,-0.131234 0.09525,-0.04445 0.205317,-0.04445 0.205317,0 0.309034,0.09948 0.105833,0.09737 0.105833,0.315384 v 0.738717 h -0.18415 v -0.726017 q 0,-0.273051 -0.254,-0.273051 -0.190501,0 -0.262467,0.10795 -0.06985,0.105834 -0.06985,0.304801 v 0.586317 H 31.12348 v -1.608669 z"
         style="font-size:2.11667px"
         id="path4686" /><path
         d="m 33.417946,35.419244 q 0,0.281517 -0.143933,0.436034 -0.141817,0.154517 -0.385234,0.154517 -0.150284,0 -0.268817,-0.06773 -0.116417,-0.06985 -0.18415,-0.201084 -0.06773,-0.13335 -0.06773,-0.321734 0,-0.281517 0.1397,-0.433917 0.141817,-0.1524 0.387351,-0.1524 0.1524,0 0.270934,0.06985 0.118533,0.06773 0.18415,0.198967 0.06773,0.129117 0.06773,0.3175 z m -0.857251,0 q 0,0.201084 0.07832,0.319617 0.08043,0.116417 0.254,0.116417 0.171451,0 0.251884,-0.116417 0.08043,-0.118533 0.08043,-0.319617 0,-0.201083 -0.08043,-0.315384 -0.08043,-0.1143 -0.254,-0.1143 -0.173567,0 -0.251884,0.1143 -0.07832,0.114301 -0.07832,0.315384 z"
         style="font-size:2.11667px"
         id="path4688" /><path
         d="m 33.919595,35.988628 -0.429684,-1.134535 h 0.198967 l 0.2413,0.668868 q 0.01693,0.04657 0.03598,0.103717 0.01905,0.05715 0.03387,0.110067 0.01482,0.05292 0.02117,0.08678 h 0.0085 q 0.0063,-0.03387 0.02328,-0.08678 0.01693,-0.05503 0.03598,-0.110067 0.01905,-0.05715 0.03598,-0.103717 l 0.2413,-0.668868 h 0.198967 l -0.4318,1.134535 z"
         style="font-size:2.11667px"
         id="path4690" /><path
         d="m 35.183246,34.832927 q 0.143933,0 0.249767,0.0635 0.105833,0.0635 0.160866,0.179917 0.05715,0.1143 0.05715,0.268817 v 0.112183 h -0.776818 q 0.0042,0.192617 0.09737,0.294217 0.09525,0.09948 0.264583,0.09948 0.10795,0 0.190501,-0.01905 0.08467,-0.02117 0.173566,-0.05927 v 0.162984 q -0.08678,0.0381 -0.17145,0.05503 -0.08467,0.01905 -0.201083,0.01905 -0.162984,0 -0.285751,-0.06562 -0.122767,-0.06562 -0.192617,-0.194733 -0.06773,-0.129117 -0.06773,-0.319617 0,-0.186267 0.06138,-0.319618 0.0635,-0.13335 0.175684,-0.205317 0.1143,-0.07197 0.264584,-0.07197 z m -0.0021,0.1524 q -0.13335,0 -0.211667,0.08678 -0.0762,0.08467 -0.09102,0.237067 h 0.577851 q -0.0021,-0.143933 -0.06773,-0.232833 -0.06562,-0.09102 -0.207434,-0.09102 z"
         style="font-size:2.11667px"
         id="path4692" /><path
         d="m 36.468062,34.832927 q 0.03175,0 0.06773,0.0042 0.03598,0.0021 0.06562,0.0085 l -0.02328,0.17145 q -0.02752,-0.0063 -0.06138,-0.01058 -0.03387,-0.0042 -0.06138,-0.0042 -0.08678,0 -0.162983,0.04868 -0.0762,0.04657 -0.122767,0.13335 -0.04445,0.08467 -0.04445,0.198967 v 0.605367 h -0.186267 v -1.134535 h 0.1524 l 0.02117,0.207434 h 0.0085 q 0.05292,-0.09313 0.139701,-0.160867 0.0889,-0.06773 0.207433,-0.06773 z"
         style="font-size:2.11667px"
         id="path4694" /></g><g
       aria-label="finished selected
"
       id="text4046"
       style="font-size:2.82224px;line-height:1.25;fill:#efede7;stroke-width:0.264585"
       transform="translate(3.7894614)"><path
         d="m 23.149985,42.670939 h -0.285751 v 0.990602 H 22.677967 V 42.670939 H 22.479 v -0.08678 l 0.198967,-0.0635 v -0.06562 q 0,-0.220134 0.09525,-0.315384 0.09737,-0.09737 0.27305,-0.09737 0.06562,0 0.122767,0.0127 0.05715,0.01058 0.09737,0.0254 l -0.04868,0.14605 q -0.03387,-0.01058 -0.07832,-0.02117 -0.04445,-0.01058 -0.09102,-0.01058 -0.09313,0 -0.139701,0.0635 -0.04445,0.06138 -0.04445,0.194733 v 0.07408 h 0.285751 z"
         style="font-size:2.11667px"
         id="path4697" /><path
         d="m 23.450552,42.101555 q 0.04233,0 0.07408,0.02963 0.03387,0.02752 0.03387,0.0889 0,0.06138 -0.03387,0.09102 -0.03175,0.02752 -0.07408,0.02752 -0.04657,0 -0.07832,-0.02752 -0.03175,-0.02963 -0.03175,-0.09102 0,-0.06138 0.03175,-0.0889 0.03175,-0.02963 0.07832,-0.02963 z m 0.09102,0.425451 v 1.134535 h -0.186267 v -1.134535 z"
         style="font-size:2.11667px"
         id="path4699" /><path
         d="m 24.447502,42.505839 q 0.2032,0 0.306917,0.09948 0.103717,0.09948 0.103717,0.3175 v 0.738718 h -0.18415 v -0.726018 q 0,-0.27305 -0.254001,-0.27305 -0.188383,0 -0.26035,0.105833 -0.07197,0.105834 -0.07197,0.304801 v 0.588434 h -0.186267 v -1.134535 h 0.150284 l 0.02752,0.154517 h 0.01058 q 0.05503,-0.0889 0.1524,-0.131234 0.09737,-0.04445 0.205317,-0.04445 z"
         style="font-size:2.11667px"
         id="path4701" /><path
         d="m 25.304753,42.101555 q 0.04233,0 0.07408,0.02963 0.03387,0.02752 0.03387,0.0889 0,0.06138 -0.03387,0.09102 -0.03175,0.02752 -0.07408,0.02752 -0.04657,0 -0.07832,-0.02752 -0.03175,-0.02963 -0.03175,-0.09102 0,-0.06138 0.03175,-0.0889 0.03175,-0.02963 0.07832,-0.02963 z m 0.09102,0.425451 v 1.134535 h -0.186267 v -1.134535 z"
         style="font-size:2.11667px"
         id="path4703" /><path
         d="m 26.49432,43.348274 q 0,0.1651 -0.122766,0.249767 -0.122767,0.08467 -0.330201,0.08467 -0.118533,0 -0.205317,-0.01905 -0.08467,-0.01905 -0.150283,-0.05292 v -0.169334 q 0.06773,0.03387 0.162983,0.0635 0.09737,0.02752 0.19685,0.02752 0.141817,0 0.205317,-0.04445 0.0635,-0.04657 0.0635,-0.122767 0,-0.04233 -0.02328,-0.0762 -0.02328,-0.03387 -0.08467,-0.06773 -0.05927,-0.03387 -0.17145,-0.0762 -0.110067,-0.04233 -0.188384,-0.08467 -0.07832,-0.04233 -0.12065,-0.1016 -0.04233,-0.05927 -0.04233,-0.152401 0,-0.143933 0.116417,-0.22225 0.118533,-0.07832 0.309034,-0.07832 0.103716,0 0.192617,0.02117 0.09102,0.02117 0.169333,0.05503 l -0.0635,0.148167 q -0.07197,-0.02963 -0.150284,-0.0508 -0.07832,-0.02117 -0.160866,-0.02117 -0.114301,0 -0.175684,0.0381 -0.05927,0.03598 -0.05927,0.09948 0,0.04868 0.02752,0.08043 0.02752,0.03175 0.09102,0.0635 0.06562,0.03175 0.173567,0.07197 0.10795,0.04022 0.18415,0.08255 0.0762,0.04233 0.116417,0.103717 0.04022,0.05927 0.04022,0.150284 z"
         style="font-size:2.11667px"
         id="path4705" /><path
         d="m 26.955755,42.052872 v 0.472017 q 0,0.08467 -0.01058,0.15875 h 0.0127 q 0.05503,-0.08678 0.148166,-0.131233 0.09525,-0.04445 0.205317,-0.04445 0.205317,0 0.309034,0.09948 0.105834,0.09737 0.105834,0.315384 v 0.738718 H 27.542075 V 42.93552 q 0,-0.27305 -0.254,-0.27305 -0.1905,0 -0.262467,0.10795 -0.06985,0.105833 -0.06985,0.3048 v 0.586318 h -0.186267 v -1.608669 z"
         style="font-size:2.11667px"
         id="path4707" /><path
         d="m 28.51574,42.505839 q 0.143934,0 0.249767,0.0635 0.105834,0.0635 0.160867,0.179917 0.05715,0.1143 0.05715,0.268817 v 0.112184 h -0.776818 q 0.0042,0.192617 0.09737,0.294217 0.09525,0.09948 0.264584,0.09948 0.10795,0 0.1905,-0.01905 0.08467,-0.02117 0.173567,-0.05927 v 0.162983 q -0.08678,0.0381 -0.17145,0.05503 -0.08467,0.01905 -0.201084,0.01905 -0.162983,0 -0.28575,-0.06562 -0.122767,-0.06562 -0.192617,-0.194734 -0.06773,-0.129117 -0.06773,-0.319617 0,-0.186267 0.06138,-0.319617 0.0635,-0.13335 0.175684,-0.205317 0.1143,-0.07197 0.264583,-0.07197 z m -0.0021,0.1524 q -0.133351,0 -0.211667,0.08678 -0.0762,0.08467 -0.09102,0.237067 h 0.577851 q -0.0021,-0.143934 -0.06773,-0.232834 -0.06562,-0.09102 -0.207433,-0.09102 z"
         style="font-size:2.11667px"
         id="path4709" /><path
         d="m 29.673557,43.682708 q -0.211667,0 -0.338667,-0.146051 -0.127001,-0.148166 -0.127001,-0.440267 0,-0.2921 0.127001,-0.440267 0.129117,-0.150284 0.340784,-0.150284 0.131233,0 0.213783,0.04868 0.08467,0.04868 0.137584,0.118533 h 0.0127 q -0.0042,-0.02752 -0.0085,-0.08043 -0.0042,-0.05503 -0.0042,-0.08678 v -0.452967 h 0.186267 v 1.608669 h -0.150284 l -0.02752,-0.1524 h -0.0085 q -0.0508,0.07197 -0.135467,0.122767 -0.08467,0.0508 -0.218017,0.0508 z m 0.02963,-0.154517 q 0.179917,0 0.251884,-0.09737 0.07408,-0.09948 0.07408,-0.29845 v -0.03387 q 0,-0.211667 -0.06985,-0.323851 -0.06985,-0.1143 -0.258233,-0.1143 -0.150284,0 -0.226484,0.12065 -0.07408,0.118534 -0.07408,0.319617 0,0.203201 0.07408,0.315384 0.0762,0.112184 0.2286,0.112184 z"
         style="font-size:2.11667px"
         id="path4711" /><path
         d="m 31.862193,43.348274 q 0,0.1651 -0.122766,0.249767 -0.122767,0.08467 -0.330201,0.08467 -0.118533,0 -0.205317,-0.01905 -0.08467,-0.01905 -0.150283,-0.05292 v -0.169334 q 0.06773,0.03387 0.162983,0.0635 0.09737,0.02752 0.19685,0.02752 0.141817,0 0.205317,-0.04445 0.0635,-0.04657 0.0635,-0.122767 0,-0.04233 -0.02328,-0.0762 -0.02328,-0.03387 -0.08467,-0.06773 -0.05927,-0.03387 -0.17145,-0.0762 -0.110067,-0.04233 -0.188384,-0.08467 -0.07832,-0.04233 -0.12065,-0.1016 -0.04233,-0.05927 -0.04233,-0.152401 0,-0.143933 0.116417,-0.22225 0.118533,-0.07832 0.309034,-0.07832 0.103716,0 0.192616,0.02117 0.09102,0.02117 0.169334,0.05503 l -0.0635,0.148167 q -0.07197,-0.02963 -0.150284,-0.0508 -0.07832,-0.02117 -0.160867,-0.02117 -0.1143,0 -0.175683,0.0381 -0.05927,0.03598 -0.05927,0.09948 0,0.04868 0.02752,0.08043 0.02752,0.03175 0.09102,0.0635 0.06562,0.03175 0.173567,0.07197 0.10795,0.04022 0.18415,0.08255 0.0762,0.04233 0.116417,0.103717 0.04022,0.05927 0.04022,0.150284 z"
         style="font-size:2.11667px"
         id="path4713" /><path
         d="m 32.575512,42.505839 q 0.143933,0 0.249767,0.0635 0.105833,0.0635 0.160867,0.179917 0.05715,0.1143 0.05715,0.268817 v 0.112184 h -0.776818 q 0.0042,0.192617 0.09737,0.294217 0.09525,0.09948 0.264584,0.09948 0.10795,0 0.1905,-0.01905 0.08467,-0.02117 0.173567,-0.05927 v 0.162983 q -0.08678,0.0381 -0.17145,0.05503 -0.08467,0.01905 -0.201084,0.01905 -0.162984,0 -0.285751,-0.06562 -0.122766,-0.06562 -0.192617,-0.194734 -0.06773,-0.129117 -0.06773,-0.319617 0,-0.186267 0.06138,-0.319617 0.0635,-0.13335 0.175684,-0.205317 0.1143,-0.07197 0.264584,-0.07197 z m -0.0021,0.1524 q -0.13335,0 -0.211667,0.08678 -0.0762,0.08467 -0.09102,0.237067 h 0.577851 q -0.0021,-0.143934 -0.06773,-0.232834 -0.06562,-0.09102 -0.207434,-0.09102 z"
         style="font-size:2.11667px"
         id="path4715" /><path
         d="m 33.517428,43.661541 h -0.186267 v -1.608669 h 0.186267 z"
         style="font-size:2.11667px"
         id="path4717" /><path
         d="m 34.315411,42.505839 q 0.143934,0 0.249767,0.0635 0.105834,0.0635 0.160867,0.179917 0.05715,0.1143 0.05715,0.268817 v 0.112184 h -0.776817 q 0.0042,0.192617 0.09737,0.294217 0.09525,0.09948 0.264584,0.09948 0.10795,0 0.1905,-0.01905 0.08467,-0.02117 0.173567,-0.05927 v 0.162983 q -0.08678,0.0381 -0.17145,0.05503 -0.08467,0.01905 -0.201083,0.01905 -0.162984,0 -0.285751,-0.06562 -0.122767,-0.06562 -0.192617,-0.194734 -0.06773,-0.129117 -0.06773,-0.319617 0,-0.186267 0.06138,-0.319617 0.0635,-0.13335 0.175684,-0.205317 0.1143,-0.07197 0.264583,-0.07197 z m -0.0021,0.1524 q -0.13335,0 -0.211667,0.08678 -0.0762,0.08467 -0.09102,0.237067 h 0.577851 q -0.0021,-0.143934 -0.06773,-0.232834 -0.06562,-0.09102 -0.207433,-0.09102 z"
         style="font-size:2.11667px"
         id="path4719" /><path
         d="m 35.526145,43.682708 q -0.1524,0 -0.268817,-0.06138 -0.116417,-0.06138 -0.184151,-0.1905 -0.06562,-0.129117 -0.06562,-0.330201 0,-0.20955 0.06773,-0.340783 0.06985,-0.131234 0.1905,-0.192617 0.120651,-0.06138 0.273051,-0.06138 0.08467,0 0.1651,0.01905 0.08255,0.01693 0.13335,0.04233 l -0.05715,0.154517 q -0.0508,-0.01905 -0.118533,-0.03598 -0.06773,-0.01693 -0.127001,-0.01693 -0.334433,0 -0.334433,0.429684 0,0.205317 0.08043,0.315384 0.08255,0.10795 0.243417,0.10795 0.09102,0 0.162984,-0.01905 0.07197,-0.01905 0.131233,-0.04657 v 0.1651 q -0.05715,0.02963 -0.127,0.04445 -0.06773,0.01693 -0.1651,0.01693 z"
         style="font-size:2.11667px"
         id="path4721" /><path
         d="m 36.465945,43.530307 q 0.04233,0 0.08678,-0.0063 0.04445,-0.0064 0.07197,-0.01693 v 0.141817 q -0.02963,0.01482 -0.08467,0.02328 -0.05503,0.01058 -0.105834,0.01058 -0.0889,0 -0.1651,-0.02963 -0.07408,-0.03175 -0.12065,-0.10795 -0.04657,-0.0762 -0.04657,-0.213784 v -0.660401 h -0.160867 v -0.0889 l 0.162984,-0.07408 0.07408,-0.2413 h 0.110067 v 0.26035 h 0.328084 v 0.143933 h -0.328084 v 0.656168 q 0,0.103717 0.04868,0.154517 0.0508,0.04868 0.129116,0.04868 z"
         style="font-size:2.11667px"
         id="path4723" /><path
         d="m 37.28933,42.505839 q 0.143934,0 0.249767,0.0635 0.105834,0.0635 0.160867,0.179917 0.05715,0.1143 0.05715,0.268817 v 0.112184 h -0.776817 q 0.0042,0.192617 0.09737,0.294217 0.09525,0.09948 0.264584,0.09948 0.10795,0 0.1905,-0.01905 0.08467,-0.02117 0.173567,-0.05927 v 0.162983 q -0.08678,0.0381 -0.17145,0.05503 -0.08467,0.01905 -0.201084,0.01905 -0.162983,0 -0.28575,-0.06562 -0.122767,-0.06562 -0.192617,-0.194734 -0.06773,-0.129117 -0.06773,-0.319617 0,-0.186267 0.06138,-0.319617 0.0635,-0.13335 0.175684,-0.205317 0.1143,-0.07197 0.264583,-0.07197 z m -0.0021,0.1524 q -0.133351,0 -0.211667,0.08678 -0.0762,0.08467 -0.09102,0.237067 h 0.577851 q -0.0021,-0.143934 -0.06773,-0.232834 -0.06562,-0.09102 -0.207433,-0.09102 z"
         style="font-size:2.11667px"
         id="path4725" /><path
         d="m 38.447147,43.682708 q -0.211667,0 -0.338667,-0.146051 -0.127,-0.148166 -0.127,-0.440267 0,-0.2921 0.127,-0.440267 0.129117,-0.150284 0.340784,-0.150284 0.131233,0 0.213783,0.04868 0.08467,0.04868 0.137584,0.118533 h 0.0127 q -0.0042,-0.02752 -0.0085,-0.08043 -0.0042,-0.05503 -0.0042,-0.08678 v -0.452967 h 0.186267 v 1.608669 h -0.150284 l -0.02752,-0.1524 h -0.0085 q -0.0508,0.07197 -0.135467,0.122767 -0.08467,0.0508 -0.218017,0.0508 z m 0.02963,-0.154517 q 0.179917,0 0.251884,-0.09737 0.07408,-0.09948 0.07408,-0.29845 v -0.03387 q 0,-0.211667 -0.06985,-0.323851 -0.06985,-0.1143 -0.258233,-0.1143 -0.150284,0 -0.226484,0.12065 -0.07408,0.118534 -0.07408,0.319617 0,0.203201 0.07408,0.315384 0.0762,0.112184 0.2286,0.112184 z"
         style="font-size:2.11667px"
         id="path4727" /></g></g></svg>
