<?xml version="1.0" encoding="UTF-8" standalone="no"?>
<!-- Created with Inkscape (http://www.inkscape.org/) -->

<svg
   width="72"
   height="24"
   viewBox="0 0 19.05 6.35"
   version="1.1"
   id="svg5"
   xml:space="preserve"
   inkscape:version="1.2.1 (9c6d41e410, 2022-07-14)"
   sodipodi:docname="status-selected-in-progress.svg"
   xmlns:inkscape="http://www.inkscape.org/namespaces/inkscape"
   xmlns:sodipodi="http://sodipodi.sourceforge.net/DTD/sodipodi-0.dtd"
   xmlns="http://www.w3.org/2000/svg"
   xmlns:svg="http://www.w3.org/2000/svg"><sodipodi:namedview
     id="namedview7"
     pagecolor="#505050"
     bordercolor="#ffffff"
     borderopacity="1"
     inkscape:showpageshadow="0"
     inkscape:pageopacity="0"
     inkscape:pagecheckerboard="1"
     inkscape:deskcolor="#505050"
     inkscape:document-units="px"
     showgrid="false"
     inkscape:zoom="11.506109"
     inkscape:cx="22.596692"
     inkscape:cy="21.206126"
     inkscape:window-width="1920"
     inkscape:window-height="1027"
     inkscape:window-x="-8"
     inkscape:window-y="22"
     inkscape:window-maximized="1"
     inkscape:current-layer="layer1" /><defs
     id="defs2" /><g
     inkscape:label="Layer 1"
     inkscape:groupmode="layer"
     id="layer1"><g
       id="g8295"><rect
         style="fill:#454139;fill-opacity:1;stroke-width:0.529167;stroke-linecap:round;stroke-linejoin:round;paint-order:stroke fill markers;stop-color:#000000"
         id="rect234"
         width="19.049999"
         height="6.3499999"
         x="1.3877788e-17"
         y="0"
         ry="0.52916664" /><rect
         style="fill:#efede7;fill-opacity:1;stroke-width:0.435093;stroke-linecap:round;stroke-linejoin:round;paint-order:stroke fill markers;stop-color:#000000"
         id="rect4181"
         width="3.0214586"
         height="0.60161781"
         x="1.6642706"
         y="2.874191"
         ry="0.30080891" /><path
         d="m 17.935525,0.79393105 c -0.05716,0 -0.116551,0.0125 -0.173384,0.03932 C 17.35184,1.027286 17.047672,1.093142 16.793827,1.093142 c -0.538478,0 -0.851389,-0.29635395 -1.471538,-0.29644695 -0.312167,-10e-7 -0.70005,0.07445 -1.233041,0.29821095 v -0.0035 c 0,-0.16510595 -0.13255,-0.29765595 -0.297656,-0.29765595 -0.165106,0 -0.297656,0.13255 -0.297656,0.29765595 l -3.72e-4,4.316016 c 0,0.08139 0.06744,0.148828 0.148828,0.148828 h 0.298028 c 0.08139,0 0.148829,-0.06697 0.148829,-0.148828 V 4.365625 c 0.481273,-0.22194 0.862366,-0.295982 1.193415,-0.295982 0.661262,0 1.121792,0.29561 1.783147,0.29561 0.286587,0 0.610846,-0.05552 1.00552,-0.214778 0.113481,-0.04623 0.185105,-0.1532 0.185105,-0.267611 V 1.079686 c 0,-0.17422195 -0.150689,-0.28571795 -0.320911,-0.28571795 z M 17.661123,2.112702 c -0.297563,0.130597 -0.537734,0.191523 -0.74414,0.209197 v 0.746094 c 0.236636,-0.01374 0.479877,-0.06468 0.74414,-0.161293 v 0.760326 c -0.212359,0.06921 -0.408626,0.103063 -0.595591,0.103063 -0.05067,0 -0.09962,-0.004 -0.148549,-0.0083 V 3.067977 c -0.04126,0.0024 -0.08272,0.0061 -0.123621,0.0061 -0.240171,0 -0.440438,-0.0423 -0.62052,-0.09376 v 0.62238 C 15.951367,3.546377 15.706173,3.496564 15.428702,3.48196 V 2.775936 c -0.03535,0.0056 -0.06976,0.0019 -0.106971,0.0019 -0.183244,0 -0.403696,0.04093 -0.63717,0.109761 v 0.642751 c -0.193477,0.04837 -0.391604,0.1079 -0.595313,0.187896 V 3.125722 l 0.230405,-0.09665 c 0.130504,-0.05404 0.249566,-0.09683 0.364908,-0.141479 V 2.127639 C 14.506897,2.175079 14.313421,2.2374 14.089248,2.331348 V 1.740686 l 0.230405,-0.09664 c 0.130504,-0.05479 0.249566,-0.09711 0.364908,-0.133853 v 0.61773 c 0.245473,-0.06468 0.456623,-0.0946 0.636984,-0.09451 0.03788,0 0.0714,0.0041 0.107157,0.0062 V 1.398647 c 0.173012,0.0146 0.31998,0.06065 0.494853,0.119063 0.07906,0.02605 0.162781,0.05228 0.249287,0.07711 v 0.614568 c 0.193384,0.06362 0.385558,0.12055 0.62052,0.12055 0.03913,0 0.08168,-0.0044 0.123621,-0.008 V 1.682437 c 0.236636,-0.01374 0.479877,-0.06468 0.74414,-0.161293 z m -2.232421,-0.07348 v 0.744513 c 0.173105,0.0146 0.319701,0.06067 0.495132,0.119063 0.07879,0.0266 0.162502,0.05265 0.249008,0.07776 V 2.209442 C 15.95053,2.135962 15.722637,2.056894 15.428702,2.03922 Z"
         id="path6776"
         style="fill:#efede7;fill-opacity:1;stroke-width:0.00930175" /><g
         id="g7530"
         transform="translate(0.18396053,-6.7145491)"><rect
           style="fill:#756cb2;fill-opacity:1;stroke-width:0.529167;stroke-linecap:round;stroke-linejoin:round;paint-order:stroke fill markers;stop-color:#000000"
           id="rect6766"
           width="6.3499999"
           height="6.3499999"
           x="6.1660395"
           y="6.7145491"
           ry="0.52916664" /><path
           id="path6768"
           style="fill:#efede7;fill-opacity:1;stroke-width:0.349868;stroke-linecap:round;stroke-linejoin:round;paint-order:stroke fill markers;stop-color:#000000"
           d="m 8.6534013,8.2124736 c 0,0 -1.4678041,-0.00602 -1.4678041,1.5962711 0,0.1938263 0.1560412,0.3498673 0.3498676,0.3498673 h 2.1596805 c 0.1938274,0 0.3498687,-0.156041 0.3498687,-0.3498673 0,-1.5840909 -1.3916127,-1.5962711 -1.3916127,-1.5962711 z m 2.1265397,0.4622763 c -0.288657,0.00363 -0.519677,0.2372995 -0.519677,0.5268514 v 0.2043173 0.053642 l 0.0021,0.00205 c 0.0048,0.06334 0.01751,0.1243626 0.03724,0.1821089 -0.02175,0.4877295 -0.1841,0.6539675 -0.4838017,0.7086185 h -3.42e-4 c -0.004,-1.97e-4 -0.0082,-3.42e-4 -0.0123,-3.42e-4 H 7.2016555 c -0.1340049,0 -0.2419006,0.107896 -0.2419006,0.241901 v 0.01059 c 0,0.134005 0.1078957,0.241901 0.2419006,0.241901 h 0.233359 c -0.00839,0.02721 -0.012983,0.05606 -0.012983,0.0861 v 0.344059 c 0,0.160806 0.1296115,0.290076 0.2904175,0.290076 h 0.376176 c 0.1608059,0 0.2900759,-0.12927 0.2900759,-0.290076 v -0.34406 c 0,-0.03003 -0.00459,-0.05889 -0.012983,-0.0861 h 0.5008848 c -0.00839,0.02721 -0.012983,0.05606 -0.012983,0.0861 v 0.34406 c 0,0.160806 0.1296115,0.290076 0.2904175,0.290076 h 0.3761751 c 0.160803,0 0.290417,-0.12927 0.290417,-0.290076 v -0.34406 c 0,-0.02249 -0.0027,-0.04426 -0.0075,-0.06526 0.5564817,-0.130035 0.8310867,-0.407023 0.9231867,-0.779343 0.06573,0.02545 0.135949,0.04169 0.209441,0.04715 l 0.0021,0.0021 h 0.0533 0.204316 c 0.291834,0 0.526852,-0.2350199 0.526852,-0.5268517 V 9.4489687 l -0.0014,-0.00137 c 7.93e-4,-0.013788 0.0014,-0.027661 0.0014,-0.041683 0,-0.4049919 -0.326178,-0.7311687 -0.731168,-0.7311687 -0.01404,0 -0.02785,5.931e-4 -0.04169,0.00137 l -0.0014,-0.00137 H 10.7868 c -0.0022,0 -0.0046,-2.86e-5 -0.0068,0 z m 0.08747,0.7311687 A 0.12363122,0.12363122 0 0 1 10.991095,9.5296023 0.12363122,0.12363122 0 0 1 10.867411,9.653286 0.12363122,0.12363122 0 0 1 10.744069,9.5296023 0.12363122,0.12363122 0 0 1 10.867411,9.4059186 Z" /></g></g></g></svg>
