<?xml version="1.0" encoding="UTF-8" standalone="no"?>
<!-- Created with Inkscape (http://www.inkscape.org/) -->

<svg
   width="72"
   height="24"
   viewBox="0 0 19.05 6.35"
   version="1.1"
   id="svg5"
   xml:space="preserve"
   inkscape:version="1.2.1 (9c6d41e410, 2022-07-14)"
   sodipodi:docname="status-complete.svg"
   xmlns:inkscape="http://www.inkscape.org/namespaces/inkscape"
   xmlns:sodipodi="http://sodipodi.sourceforge.net/DTD/sodipodi-0.dtd"
   xmlns="http://www.w3.org/2000/svg"
   xmlns:svg="http://www.w3.org/2000/svg"><sodipodi:namedview
     id="namedview7"
     pagecolor="#505050"
     bordercolor="#ffffff"
     borderopacity="1"
     inkscape:showpageshadow="0"
     inkscape:pageopacity="0"
     inkscape:pagecheckerboard="1"
     inkscape:deskcolor="#505050"
     inkscape:document-units="px"
     showgrid="false"
     inkscape:zoom="8.1360477"
     inkscape:cx="18.928109"
     inkscape:cy="20.034298"
     inkscape:window-width="1920"
     inkscape:window-height="1027"
     inkscape:window-x="-8"
     inkscape:window-y="22"
     inkscape:window-maximized="1"
     inkscape:current-layer="layer1" /><defs
     id="defs2" /><g
     inkscape:label="Layer 1"
     inkscape:groupmode="layer"
     id="layer1"><g
       id="g9059"><rect
         style="fill:#454139;fill-opacity:1;stroke-width:0.529167;stroke-linecap:round;stroke-linejoin:round;paint-order:stroke fill markers;stop-color:#000000"
         id="rect234"
         width="19.049999"
         height="6.3499999"
         x="1.3877788e-17"
         y="0"
         ry="0.52916664" /><g
         id="g7526"
         transform="translate(-0.0229948,-6.6915541)"><rect
           style="fill:#756cb2;fill-opacity:1;stroke-width:0.529167;stroke-linecap:round;stroke-linejoin:round;paint-order:stroke fill markers;stop-color:#000000"
           id="rect4127"
           width="6.3499999"
           height="6.3499999"
           x="12.722995"
           y="6.6915541"
           ry="0.52916664" /><path
           d="m 17.95852,7.4854851 c -0.05716,0 -0.116551,0.0125 -0.173384,0.03932 -0.410301,0.1940349 -0.714469,0.2598909 -0.968314,0.2598909 -0.538478,0 -0.851389,-0.296354 -1.471538,-0.296447 -0.312167,-1e-6 -0.70005,0.07445 -1.233041,0.298211 v -0.0035 c 0,-0.165106 -0.13255,-0.297656 -0.297656,-0.297656 -0.165106,0 -0.297656,0.13255 -0.297656,0.297656 l -3.72e-4,4.316016 c 0,0.08139 0.06744,0.148828 0.148828,0.148828 h 0.298028 c 0.08139,0 0.148829,-0.06697 0.148829,-0.148828 v -1.041797 c 0.481273,-0.22194 0.862366,-0.295982 1.193415,-0.295982 0.661262,0 1.121792,0.29561 1.783147,0.29561 0.286587,0 0.610846,-0.05552 1.00552,-0.214778 0.113481,-0.04623 0.185105,-0.1532 0.185105,-0.267611 V 7.77124 c 0,-0.174222 -0.150689,-0.285718 -0.320911,-0.285718 z M 17.684118,8.804256 c -0.297563,0.130597 -0.537734,0.191523 -0.74414,0.209197 v 0.746094 c 0.236636,-0.01374 0.479877,-0.06468 0.74414,-0.161293 v 0.760326 c -0.212359,0.06921 -0.408626,0.103063 -0.595591,0.103063 -0.05067,0 -0.09962,-0.004 -0.148549,-0.0083 V 9.759531 c -0.04126,0.0024 -0.08272,0.0061 -0.123621,0.0061 -0.240171,0 -0.440438,-0.0423 -0.62052,-0.09376 v 0.62238 c -0.221475,-0.05632 -0.466669,-0.106133 -0.74414,-0.120737 V 9.46749 c -0.03535,0.0056 -0.06976,0.0019 -0.106971,0.0019 -0.183244,0 -0.403696,0.04093 -0.63717,0.109761 v 0.642751 c -0.193477,0.04837 -0.391604,0.1079 -0.595313,0.187896 V 9.817276 l 0.230405,-0.09665 c 0.130504,-0.05404 0.249566,-0.09683 0.364908,-0.141479 V 8.819193 c -0.177664,0.04744 -0.37114,0.109761 -0.595313,0.203709 V 8.43224 L 14.342648,8.3356 c 0.130504,-0.05479 0.249566,-0.09711 0.364908,-0.133853 v 0.61773 c 0.245473,-0.06468 0.456623,-0.0946 0.636984,-0.09451 0.03788,0 0.0714,0.0041 0.107157,0.0062 V 8.090201 c 0.173012,0.0146 0.31998,0.06065 0.494853,0.119063 0.07906,0.02605 0.162781,0.05228 0.249287,0.07711 v 0.614568 c 0.193384,0.06362 0.385558,0.12055 0.62052,0.12055 0.03913,0 0.08168,-0.0044 0.123621,-0.008 V 8.373991 c 0.236636,-0.01374 0.479877,-0.06468 0.74414,-0.161293 z m -2.232421,-0.07348 v 0.744513 c 0.173105,0.0146 0.319701,0.06067 0.495132,0.119063 0.07879,0.0266 0.162502,0.05265 0.249008,0.07776 V 8.900996 C 15.973525,8.827516 15.745632,8.748448 15.451697,8.730774 Z"
           id="path2876"
           style="fill:#efede7;fill-opacity:1;stroke-width:0.00930175" /></g><path
         id="rect3986"
         style="fill:#efede7;fill-opacity:1;stroke-width:0.349868;stroke-linecap:round;stroke-linejoin:round;paint-order:stroke fill markers;stop-color:#000000"
         d="m 8.8373615,1.4979245 c 0,0 -1.467804,-0.00602 -1.467804,1.5962711 0,0.1938263 0.1560412,0.3498677 0.3498676,0.3498677 h 2.1596804 c 0.1938275,0 0.3498685,-0.1560414 0.3498685,-0.3498677 0,-1.5840909 -1.3916125,-1.5962711 -1.3916125,-1.5962711 z m 2.1265395,0.4622763 c -0.288657,0.00363 -0.519677,0.2372995 -0.519677,0.5268514 v 0.2043173 0.053642 l 0.0021,0.00205 c 0.0048,0.06334 0.01751,0.1243626 0.03724,0.1821089 -0.02175,0.4877291 -0.1841,0.6539673 -0.4838015,0.7086186 h -3.42e-4 c -0.004,-1.972e-4 -0.0082,-3.417e-4 -0.0123,-3.417e-4 H 7.3856158 c -0.1340049,0 -0.2419006,0.1078958 -0.2419006,0.2419007 V 3.88994 c 0,0.1340049 0.1078957,0.2419007 0.2419006,0.2419007 h 0.233359 c -0.00839,0.027209 -0.012983,0.056064 -0.012983,0.0861 V 4.562 c 0,0.1608057 0.1296115,0.2900758 0.2904175,0.2900758 h 0.376176 c 0.1608058,0 0.2900758,-0.1292701 0.2900758,-0.2900758 V 4.2179404 c 0,-0.030036 -0.00459,-0.058891 -0.012983,-0.0861 h 0.5008848 c -0.00839,0.027209 -0.012983,0.056064 -0.012983,0.0861 v 0.3440593 c 0,0.1608057 0.1296115,0.2900758 0.2904175,0.2900758 h 0.3761751 c 0.160803,0 0.290417,-0.1292701 0.290417,-0.2900758 V 4.2179404 c 0,-0.022495 -0.0027,-0.044259 -0.0075,-0.065258 0.5564815,-0.1300351 0.8310865,-0.4070232 0.9231865,-0.7793438 0.06573,0.02545 0.135949,0.041691 0.209441,0.04715 l 0.0021,0.00205 h 0.0533 0.204316 c 0.291834,0 0.526852,-0.2350196 0.526852,-0.5268514 V 2.7344196 l -0.0014,-0.00137 c 7.93e-4,-0.013788 0.0014,-0.027661 0.0014,-0.041683 0,-0.4049919 -0.326178,-0.7311687 -0.731168,-0.7311687 -0.01404,0 -0.02785,5.931e-4 -0.04169,0.00137 l -0.0014,-0.00137 H 10.97076 c -0.0022,0 -0.0046,-2.86e-5 -0.0068,0 z m 0.08747,0.7311687 a 0.12363122,0.12363122 0 0 1 0.123684,0.1236837 0.12363122,0.12363122 0 0 1 -0.123684,0.1236837 0.12363122,0.12363122 0 0 1 -0.123342,-0.1236837 0.12363122,0.12363122 0 0 1 0.123342,-0.1236837 z" /><rect
         style="fill:#efede7;fill-opacity:1;stroke-width:0.435093;stroke-linecap:round;stroke-linejoin:round;paint-order:stroke fill markers;stop-color:#000000"
         id="rect4181"
         width="3.0214586"
         height="0.60161781"
         x="1.6642706"
         y="2.874191"
         ry="0.30080891" /></g></g></svg>
